<svg xmlns="http://www.w3.org/2000/svg" viewBox="0 0 20.37 27.06"><defs><style>.cls-1{fill:#1c75bc;}</style></defs><g id="Layer_2" data-name="Layer 2"><g id="Layer_3" data-name="Layer 3"><path class="cls-1" d="M0,13.48V2.85A2.58,2.58,0,0,1,2.82,0C6.25,0,9.68,0,13.11,0a3,3,0,0,1,2.26.94c1.34,1.35,2.67,2.69,4,4a3.13,3.13,0,0,1,1,2.31c0,5.68,0,11.37,0,17.05a2.57,2.57,0,0,1-2.81,2.74H2.76A2.54,2.54,0,0,1,0,24.28Zm1.75,0c0,3.54,0,7.08,0,10.62,0,1,.24,1.2,1.2,1.2h14.5c.85,0,1.1-.23,1.1-1.05,0-5,0-10.08,0-15.12,0-.49-.17-.65-.65-.64-1.48,0-3,0-4.45,0-1.16,0-1.64-.48-1.64-1.63,0-1.46,0-2.92,0-4.39,0-.7,0-.72-.73-.72H3c-1.1,0-1.29.2-1.29,1.33ZM13.56,4.23c0,.68,0,1.35,0,2,0,.35.13.51.49.51H18c.12,0,.29,0,.35-.1s-.08-.27-.18-.37c-.27-.29-.54-.57-.82-.85-1.07-1.07-2.15-2.15-3.23-3.21-.12-.13-.25-.35-.45-.26s-.09.33-.1.51C13.55,3.07,13.56,3.65,13.56,4.23Z"/><path class="cls-1" d="M9.24,23.7A5.92,5.92,0,0,1,7.91,12c.43-.1.66,0,.66.47,0,.18,0,.37,0,.56,0,.42-.16.63-.57.75A4.18,4.18,0,0,0,9.43,22a4.13,4.13,0,0,0,3.85-2.85,1.41,1.41,0,0,1,1.7-.46c.19.17.12.38.07.58A5.9,5.9,0,0,1,9.24,23.7Z"/><path class="cls-1" d="M13.48,17H10.73c-.42,0-.6-.14-.6-.58q0-2.84,0-5.67c0-.45.18-.58.61-.56a6.88,6.88,0,0,1,6.18,6c0,.76,0,.82-.8.82Zm-.05-1.8c.34,0,.67,0,1,0s.39-.09.26-.36a4.78,4.78,0,0,0-2.35-2.44c-.31-.15-.41,0-.41.28v1C11.94,15.13,11.94,15.13,13.43,15.15Z"/></g></g></svg>