<svg xmlns="http://www.w3.org/2000/svg" viewBox="0 0 30.24 21.21"><defs><style>.cls-1{fill:#1c75bc;}</style></defs><g id="Layer_2" data-name="Layer 2"><g id="Layer_3" data-name="Layer 3"><path class="cls-1" d="M15.05,21.21H1.9c-1.32,0-1.9-.58-1.9-1.88V1.9A1.61,1.61,0,0,1,1.65,0,6.17,6.17,0,0,1,2.4,0H28c1.66,0,2.23.6,2.23,2.25V19a6.27,6.27,0,0,1,0,.75,1.56,1.56,0,0,1-1.7,1.49Zm0-1.56h12.8c.72,0,.72,0,.72-.71V2.38c0-.75,0-.75-.74-.75H2.36c-.79,0-.8,0-.8.82V18.92c0,.72,0,.73.72.73Z"/><path class="cls-1" d="M7.67,6.09c.38,0,.69.08.72.6,0,.18.13.26.29.3A2.14,2.14,0,0,1,9,7.08c.32.14.77.22.77.62s-.41.62-.68.88a.39.39,0,0,1-.38.05,7.26,7.26,0,0,0-1.8-.09c-.19,0-.38,0-.42.27s.12.37.33.43l1.74.48a1.89,1.89,0,0,1,1.61,1.74,1.82,1.82,0,0,1-1.44,2c-.23.08-.37.17-.39.44,0,.46-.37.5-.72.5s-.79.05-.86-.46a.52.52,0,0,0-.47-.49l-.15,0c-.31-.2-.87-.18-.78-.74A1.07,1.07,0,0,1,6.67,12,6.2,6.2,0,0,0,8.22,12a.38.38,0,0,0,.4-.32.37.37,0,0,0-.29-.41L7.12,11a9.12,9.12,0,0,1-1-.32,1.91,1.91,0,0,1,.15-3.57c.33-.1.52-.21.58-.57S7.27,6.1,7.67,6.09Z"/><path class="cls-1" d="M19.65,9.16H14.38a.83.83,0,0,1-.76-1.3c.15-.31.44-.26.7-.26H25c.57,0,.64.1.65.75s-.06.8-.64.8Z"/><path class="cls-1" d="M15.84,13.68h-1.6c-.41,0-.67-.12-.69-.59,0-.72.07-.94.6-1a13.27,13.27,0,0,1,1.41,0c.65,0,1.3,0,2,0s.7.25.68.94a.6.6,0,0,1-.74.65H15.84Z"/><path class="cls-1" d="M23.4,13.68H21.69c-.39,0-.6-.19-.58-.59s-.14-.92.48-1a19.68,19.68,0,0,1,3.6,0c.68.07.44.64.47,1s-.2.54-.56.54Z"/></g></g></svg>