<svg xmlns="http://www.w3.org/2000/svg" viewBox="0 0 29.22 25.98"><defs><style>.cls-1{fill:#1c75bc;}</style></defs><g id="Layer_2" data-name="Layer 2"><g id="Layer_3" data-name="Layer 3"><path class="cls-1" d="M14.65,0c3.94,0,7.88,0,11.81,0a2.62,2.62,0,0,1,2.76,2.74q-.11,7,0,14.08a2.6,2.6,0,0,1-2.74,2.71c-2.91-.06-5.83,0-8.74,0-.49,0-.64.12-.51.62.33,1.23.64,2.47.94,3.71a.54.54,0,0,0,.64.48c1,0,1.94,0,2.91,0,.67,0,1,.33,1,.85s-.37.81-1,.81q-7.12,0-14.25,0c-.63,0-1-.3-1-.81s.36-.84,1-.85c1,0,2,0,3,0a.54.54,0,0,0,.63-.49Q11.51,22,12,20.1c.13-.47,0-.6-.47-.59H2.78A2.49,2.49,0,0,1,0,16.76v-14A2.48,2.48,0,0,1,2.72,0ZM14.6,13H26.68c.84,0,.84,0,.84-.81V2.94c0-1.06-.17-1.23-1.22-1.23H2.89c-1,0-1.21.21-1.21,1.19v9.28c0,.78,0,.79.78.79Zm0,1.69H2.29c-.44,0-.63.16-.62.6s0,1.08,0,1.62.28.91.92.94H26.72c.54,0,.78-.28.79-.82s0-1,0-1.51c0-.81,0-.82-.79-.82Zm0,9.64c.5,0,1,0,1.51,0,.33,0,.46-.1.37-.45-.21-.75-.39-1.5-.57-2.25a.53.53,0,0,0-.6-.48c-.44,0-.89,0-1.34,0a.49.49,0,0,0-.57.44c-.18.77-.37,1.53-.57,2.3-.1.36,0,.45.37.44S14.09,24.3,14.56,24.3Z"/></g></g></svg>