<svg xmlns="http://www.w3.org/2000/svg" viewBox="0 0 25.57 25.55"><defs><style>.cls-1{fill:#1c75bc;}</style></defs><g id="Layer_2" data-name="Layer 2"><g id="Layer_3" data-name="Layer 3"><path class="cls-1" d="M23.22,7.39c-.26.73.15,1.26.8,1.85a4.84,4.84,0,0,1-.37,7.4,1,1,0,0,0-.46,1.05,4.85,4.85,0,0,1-5.66,5.46.65.65,0,0,0-.72.29,4.9,4.9,0,0,1-8,.08A.76.76,0,0,0,8,23.17a4.88,4.88,0,0,1-5.59-5.61.72.72,0,0,0-.32-.8,4.88,4.88,0,0,1,0-8A.79.79,0,0,0,2.39,8,4.86,4.86,0,0,1,8,2.37.82.82,0,0,0,8.83,2a4.92,4.92,0,0,1,7.94,0,.74.74,0,0,0,.83.34A4.88,4.88,0,0,1,23.12,6,6.08,6.08,0,0,1,23.22,7.39Zm-1.65-.12a3,3,0,0,0-1.63-2.9,3.19,3.19,0,0,0-3.15,0c-.51.22-.69.11-.88-.39a3.2,3.2,0,0,0-3-2.28,3.13,3.13,0,0,0-3.16,2c-.44.88-.43.86-1.36.55A3.06,3.06,0,0,0,5.2,4.7a3.14,3.14,0,0,0-.83,4.11c.23.5.1.67-.37.83A3.27,3.27,0,0,0,1.77,12a3.19,3.19,0,0,0,1.71,3.74c.33.19.86.18,1,.54s-.21.76-.34,1.14a3.25,3.25,0,0,0,3.21,4.21,5,5,0,0,0,1.48-.4c.44-.19.65-.13.82.35a3.4,3.4,0,0,0,2.09,2.19,3.26,3.26,0,0,0,4.17-2c.32-.7.32-.69,1-.42a3.13,3.13,0,0,0,3.31-.3,3.17,3.17,0,0,0,1-4.16c-.26-.63-.26-.63.4-.9a3.29,3.29,0,0,0,2.26-3.15,3.17,3.17,0,0,0-2.29-3.11c-.53-.2-.6-.43-.38-.89A2.85,2.85,0,0,0,21.57,7.27Z"/><path class="cls-1" d="M12.77,19.17c-.69,0-.77-.08-.78-.75s0-.78-.78-.92a3.61,3.61,0,0,1-1.34-.6.45.45,0,0,1-.09-.76c.51-.62.62-.62,1.37-.39a6.71,6.71,0,0,0,2.89.1.83.83,0,0,0,.69-.84.86.86,0,0,0-.6-1c-.94-.29-1.89-.56-2.84-.84A2.67,2.67,0,0,1,9.48,9.34a2.48,2.48,0,0,1,2-1.35c.43,0,.55-.24.53-.61V7.27a.88.88,0,0,1,1.36-.84c.31.15.3.44.27.69-.07.57.08.88.73.92a2.71,2.71,0,0,1,1.34.6c.34.25.36.5.07.79-.59.59-.66.69-1.39.36a5.76,5.76,0,0,0-2.83-.12.87.87,0,0,0-.7.9.89.89,0,0,0,.68,1c.86.26,1.73.51,2.6.75a3,3,0,0,1,1.77,1.09,2.58,2.58,0,0,1-1.56,4.11c-.52.1-.75.26-.72.84C13.66,19.08,13.52,19.18,12.77,19.17Z"/></g></g></svg>