<svg xmlns="http://www.w3.org/2000/svg" viewBox="0 0 34.84 27.88"><defs><style>.cls-1{fill:#1c75bc;}</style></defs><g id="Layer_2" data-name="Layer 2"><g id="Layer_3" data-name="Layer 3"><path class="cls-1" d="M12.21,27.88H2.83A2.6,2.6,0,0,1,0,25.06a17.47,17.47,0,0,1,.18-3.75,7.37,7.37,0,0,1,7.15-5.65A6.58,6.58,0,0,1,9.16,16a9.25,9.25,0,0,0,6.08,0c4.39-1.51,8.58,2.09,9.09,5.71a18.85,18.85,0,0,1,.12,3.52,2.63,2.63,0,0,1-2.86,2.62Zm0-1.8h9.38c.75,0,1-.26,1-1s0-1.59,0-2.38c-.05-3.24-3.44-6-6.57-5a11.94,11.94,0,0,1-7.61,0C5.66,16.8,3,18.83,2.19,21a11.09,11.09,0,0,0-.38,4c0,.87.28,1.12,1.16,1.12Z"/><path class="cls-1" d="M19.17,7a7,7,0,1,1-6.94-7A6.94,6.94,0,0,1,19.17,7ZM17.38,7a5.14,5.14,0,0,0-5.12-5.19A5.22,5.22,0,0,0,7.05,7a5.23,5.23,0,0,0,5.15,5.22A5.13,5.13,0,0,0,17.38,7Z"/><path class="cls-1" d="M34.84,8.12a.76.76,0,0,1-.28.57q-3.48,3.38-7,6.72c-.44.43-.74.41-1.19,0-1.16-1.15-2.31-2.32-3.48-3.47a.66.66,0,0,1,0-1.09c.11-.11.21-.22.33-.33.49-.46.63-.46,1.1,0,.74.73,1.49,1.46,2.21,2.22.33.35.56.38.93,0,1.8-1.79,3.63-3.56,5.46-5.34.24-.24.52-.57.89-.32A2.53,2.53,0,0,1,34.84,8.12Z"/></g></g></svg>