<svg xmlns="http://www.w3.org/2000/svg" viewBox="0 0 23.86 23.83"><defs><style>.cls-1{fill:#1c75bc;}</style></defs><g id="Layer_2" data-name="Layer 2"><g id="Layer_3" data-name="Layer 3"><path class="cls-1" d="M22.19,3.72c-.07.59-.14,1.46-.27,2.32-.08.55,0,1,.55,1.2a4.53,4.53,0,0,1,.48.27A1.56,1.56,0,0,1,23,10.32c-.57.38-1.17.74-1.75,1.1l-.21.13c-.26.18-.62.31-.75.55s.33.41.46.66a1.5,1.5,0,0,1,.05,1.64.52.52,0,0,0,.14.79c.48.4.95.81,1.42,1.24a1.57,1.57,0,0,1,0,2.49c-.48.43-1,.85-1.45,1.26a.47.47,0,0,0-.14.69,1.34,1.34,0,0,1,0,1.69,1.77,1.77,0,0,1-1.91.58c-1.95-.44-3.9-.83-5.85-1.25-.33-.07-.54,0-.65.33s-.21.45-.31.68a1.44,1.44,0,0,1-1.43.93,1.41,1.41,0,0,1-1.39-.92c-.65-1.5-1.29-3-1.94-4.49-.22-.5-.25-.51-.63-.13l-5,5a2.86,2.86,0,0,1-.45.4.72.72,0,0,1-1-.17.63.63,0,0,1,.06-1l3.36-3.35c.67-.68,1.34-1.36,2-2,.3-.29.23-.43-.13-.58L1.07,14.69a1.55,1.55,0,0,1-.86-2.23,1.8,1.8,0,0,1,1-.74c.87-.42.88-.42.69-1.35Q1.32,7.74.76,5.14a6.09,6.09,0,0,1-.1-.73A1.53,1.53,0,0,1,2.88,3c.38.27.67.19,1-.18s.82-.95,1.25-1.41a1.49,1.49,0,0,1,2.26,0c.48.5.93,1,1.37,1.56a.47.47,0,0,0,.68.13,1.46,1.46,0,0,1,2,.34c.23.25.35.23.51,0L13.49,1c.79-1.25,2.18-1.29,2.86,0a1.5,1.5,0,0,0,1.89.94c.63-.13,1.28-.14,1.92-.23C21.51,1.5,22.21,2.09,22.19,3.72ZM1.75,13.14a.84.84,0,0,0,.44.31c1.45.63,2.91,1.24,4.35,1.9a.8.8,0,0,0,1.07-.18c2.22-2.24,4.47-4.45,6.71-6.66.43-.43.77-.45,1.15-.08s.33.66-.07,1.12l-.35.35C12.92,12,10.8,14.18,8.66,16.31a.7.7,0,0,0-.2.91c.52,1.16,1,2.33,1.49,3.5a6,6,0,0,0,.65,1.35,4.94,4.94,0,0,0,.68-1.41c.19-.52.47-.63,1-.51,2,.45,4.1.85,6.15,1.26.28.06.68.28.82.07s-.18-.52-.34-.76c-.28-.44-.19-.72.2-1,.65-.53,1.24-1.14,1.88-1.68.37-.31.3-.5,0-.76-.5-.4-1-.83-1.45-1.27-.84-.76-.84-.76-.38-1.78.05-.12.17-.24.06-.36s-.25,0-.37,0l-2.31.56a.68.68,0,0,1-.85-.41.69.69,0,0,1,.23-1c.18-.13.38-.25.58-.38,1.73-1.1,3.48-2.2,5.21-3.31.56-.36.55-.37,0-.74-.32-.2-.64-.42-1-.59a.78.78,0,0,1-.45-.93c.14-1.09.23-2.19.37-3.29.05-.42-.06-.55-.5-.5-1.15.13-2.3.22-3.44.34A.63.63,0,0,1,16,3.26c-.21-.39-.47-.76-.7-1.14s-.33-.5-.66,0Q12.82,4.94,11,7.71c-.35.55-.69.69-1.13.5S9.4,7.72,9.55,7.1s.28-1,.38-1.54c.07-.31.36-.74.14-.92s-.59.18-.86.34a.66.66,0,0,1-1-.21c-.53-.65-1.1-1.26-1.64-1.91-.22-.26-.38-.29-.63,0-.56.63-1.15,1.23-1.72,1.84s-.53.56-1.19.2c-.21-.11-.46-.38-.65-.22s0,.46,0,.7c.4,2.09.8,4.18,1.23,6.26a.67.67,0,0,1-.51.92C2.7,12.71,2.25,12.93,1.75,13.14Z"/></g></g></svg>