<svg xmlns="http://www.w3.org/2000/svg" viewBox="0 0 53 45.16"><defs><style>.cls-1{fill:#414042;}</style></defs><g id="Layer_2" data-name="Layer 2"><g id="Layer_1_1980" data-name="Layer 1 1980"><path class="cls-1" d="M1.43,45.16C0,45.16,0,45.11,0,44.25a1.51,1.51,0,0,1,.35-1.13,1.31,1.31,0,0,1,1-.32h.28A1.75,1.75,0,0,0,3,42.32a1.89,1.89,0,0,0,.38-1.54,18.9,18.9,0,0,1,0-2.62,2.05,2.05,0,0,1,2.23-2.1H8.1c1.73,0,2-.29,2-2V28.84c0-3.43,0-6.85,0-10.28,0-.13,0-.27,0-.41,0-.57,0-.58.12-.61a5,5,0,0,1,1.24-.18,2.63,2.63,0,0,1,1.12.23c.08,0,.1.21.08.64,0,.11,0,.22,0,.31V33.7c0,2.11.24,2.35,2.33,2.35h3.26c1.7,0,2-.33,2-2V19.12c0-1.86.61-1.86,1.11-1.86a4.94,4.94,0,0,1,1.15.19c.2.05.24.06.23.57v.15c0,1.94,0,3.87,0,5.81v4.26c0,2,0,4,0,6a1.85,1.85,0,0,0,.43,1.42,1.68,1.68,0,0,0,1.25.43h.19c.46,0,.92,0,1.37,0h2.2c1.88,0,2.14-.26,2.14-2.09V29.5c0-3.64,0-7.28,0-10.92a3.89,3.89,0,0,0,0-.47,1.29,1.29,0,0,1,0-.54,4.31,4.31,0,0,1,1.31-.22,2.84,2.84,0,0,1,1.15.23s0,.3,0,.38,0,.24,0,.35v15.5c0,2,.25,2.24,2.22,2.24h3.26c2,0,2.25-.26,2.25-2.32v-4c0-3.68,0-7.35,0-11,0-.15,0-.3,0-.46-.06-.64,0-.65.13-.69a4,4,0,0,1,1.2-.19,3.22,3.22,0,0,1,1.18.22c.06,0,.07.16,0,.52,0,.1,0,.2,0,.29,0,3.54,0,7.07,0,10.61v4.89c0,1.92.24,2.17,2.15,2.17h2.35a2,2,0,0,1,2.1,1.83,12.54,12.54,0,0,1,.11,2.94,1.94,1.94,0,0,0,.4,1.52,1.72,1.72,0,0,0,1.32.45h.19c.86,0,1.26.34,1.33,1.16,0,.57,0,.92-.08,1s-.45.17-1,.17H1.43Zm5.68-6.75A1.09,1.09,0,0,0,6,39.07,4.4,4.4,0,0,0,5.91,42a1.13,1.13,0,0,0,1.21.84l.42,0,.28,0H45.57l.36,0a1.07,1.07,0,0,0,1-.57,4.46,4.46,0,0,0,.14-2.89,1.15,1.15,0,0,0-1.25-.93l-.38,0h-38Z"/><path class="cls-1" d="M48.23,15.85l-10.83,0H5.12c-1.46,0-1.46,0-1.75-1.37A1.29,1.29,0,0,0,2,13.36H1.53A1.91,1.91,0,0,1,.2,13,1.79,1.79,0,0,1,0,11.64c.06-.48.35-.69,1-1L17.66,3.41c2.2-1,4.39-1.92,6.58-2.9a5.31,5.31,0,0,1,4.54,0c4.76,2.1,9.52,4.17,14.27,6.25l8.86,3.87c.67.29,1,.45,1.06,1A2.11,2.11,0,0,1,52.82,13a2,2,0,0,1-1.3.32c-.63,0-1.79.05-1.85,1.47,0,.71-.24,1-1.41,1ZM7.67,13.44l.41,0H44.89l1,0a1.17,1.17,0,0,0,1.25-1,1.31,1.31,0,0,0-.7-1.53c-.41-.2-.83-.4-1.25-.58L40.41,8.23c-4.2-1.81-8.4-3.61-12.6-5.44a3.2,3.2,0,0,0-1.29-.28,3.47,3.47,0,0,0-1.39.31C22.5,4,19.86,5.11,17.21,6.24L13.8,7.71,7.2,10.57l-.14.06c-.51.21-1.45.6-1.24,1.77a1.2,1.2,0,0,0,1.3,1l.45,0Z"/></g></g></svg>