<svg xmlns="http://www.w3.org/2000/svg" viewBox="0 0 27.53 27.52"><defs><style>.cls-1{fill:#1c75bc;}</style></defs><g id="Layer_2" data-name="Layer 2"><g id="Layer_3" data-name="Layer 3"><path class="cls-1" d="M27.51,17.67c0,2.16,0,3.89,0,5.63a4.26,4.26,0,0,1-4.23,4.22H13A2.59,2.59,0,0,1,10.31,25a2.56,2.56,0,0,1,2.62-2.65c1.13,0,2.25,0,3.37,0A2.53,2.53,0,0,1,18.92,25c0,.78,0,.78.78.78q1.74,0,3.48,0a2.46,2.46,0,0,0,2.55-2.52c0-3.35.08-6.71,0-10.06A11.89,11.89,0,0,0,15,1.86a11.55,11.55,0,0,0-8.4,2.41A12.44,12.44,0,0,0,1.78,14.1c0,.15,0,.31,0,.46,0,.87-.13,1-1,1-.66,0-.78-.15-.79-.82A14.14,14.14,0,0,1,7.84,1.36,12.57,12.57,0,0,1,15.11.07a13,13,0,0,1,8.11,3.69,13.17,13.17,0,0,1,4.17,8C27.66,13.86,27.43,16,27.51,17.67ZM14.6,25.74c.58,0,1.15,0,1.72,0a.78.78,0,0,0,.82-.83.75.75,0,0,0-.79-.8c-1.14,0-2.29,0-3.43,0a.82.82,0,0,0,0,1.64C13.5,25.76,14.05,25.74,14.6,25.74Z"/><path class="cls-1" d="M17.16,15.51c0-1.09,0-2.18,0-3.26a1.79,1.79,0,0,1,2-1.94h1.31a3.38,3.38,0,0,1,3.66,3.23,18.09,18.09,0,0,1,0,4.16,3.42,3.42,0,0,1-3.4,3c-.55,0-1.1,0-1.65,0a1.79,1.79,0,0,1-1.85-1.84C17.14,17.72,17.16,16.61,17.16,15.51Zm5.13,0h0c0-.26,0-.53,0-.8.16-2.21-.74-2.77-2.74-2.64h-.11c-.32,0-.44.15-.44.45v5.84c0,.32.13.5.47.49s.84,0,1.26,0a1.63,1.63,0,0,0,1.55-1.67C22.3,16.63,22.29,16.08,22.29,15.52Z"/><path class="cls-1" d="M10.42,15.5c0,1,0,2.06,0,3.09a1.89,1.89,0,0,1-2.11,2.07,9.84,9.84,0,0,1-2.1-.07,3.44,3.44,0,0,1-2.77-3.27c0-1.24,0-2.48,0-3.72a3.41,3.41,0,0,1,3.37-3.29H8.52A1.72,1.72,0,0,1,10.36,12c.08,1.18,0,2.36,0,3.54Zm-1.85,0c0-.59,0-1.18,0-1.77,0-1.87.36-1.6-1.69-1.59a1.58,1.58,0,0,0-1.59,1.61q0,1.77,0,3.54A1.56,1.56,0,0,0,6.8,18.86c.39,0,.8,0,1.19,0s.59-.14.58-.57C8.55,17.36,8.56,16.41,8.57,15.46Z"/></g></g></svg>