<svg xmlns="http://www.w3.org/2000/svg" viewBox="0 0 150.76 256.96"><defs><style>.cls-1{fill:#414042;}</style></defs><g id="Layer_2" data-name="Layer 2"><g id="Layer_1_1980" data-name="Layer 1 1980"><path class="cls-1" d="M150.75,156.86V101.08q0-38.43,0-76.84c0-14.68-9.39-24.17-23.91-24.2Q101.17,0,75.5,0T24,0C9.41.07,0,9.55,0,24.21Q0,128.48,0,232.75c0,14.66,9.39,24.15,23.92,24.17q22.22,0,44.41,0,29.23,0,58.47,0a24.39,24.39,0,0,0,10.94-2.17c8.6-4.16,13-11.36,13-21.41Q150.77,195.11,150.75,156.86ZM127.66,246.1H23.1c-6,0-11.08-3.74-12-8.88a32.72,32.72,0,0,1-.29-5.94c0-.6,0-1.2,0-1.8,0-2.53,0-5.16.4-5.58s3.11-.43,5.71-.43h88.34c9,0,20.92,0,33.07-.06a3.86,3.86,0,0,1,1.55.18,2.58,2.58,0,0,1,.09,1.27c-.13,2-.11,4-.1,5.95,0,1.47,0,3,0,4.45A11.5,11.5,0,0,1,129,246.07Q128.32,246.1,127.66,246.1Zm12.28-35.43c0,.89,0,1.8-.06,2.31-.49.05-1.37.05-2.17.05H13c-.79,0-1.66,0-2.16-.05,0-.48,0-1.31,0-2.06q0-84.42,0-168.86c0-.75,0-1.58,0-2.07.51-.05,1.38-.05,2.18-.05H137.73c.79,0,1.66,0,2.16.05,0,.49,0,1.33,0,2.09Zm0-188.17c.08,2.91.16,5.67-.3,6.14s-3.16.47-6,.47h-121c-.58,0-1.31,0-1.77,0,0-.45,0-1.13,0-1.67V27c0-1.51,0-3.07,0-4.58.19-6.79,5-11.54,11.76-11.55q26.19,0,52.39,0,26.61,0,53.21,0C134.91,10.9,139.72,15.67,139.92,22.5Z"/><path class="cls-1" d="M75.46,228.72a6.13,6.13,0,1,0,6.07,6.08A6.31,6.31,0,0,0,75.46,228.72Z"/><path class="cls-1" d="M80.18,16.72q-14.25-.11-28.51,0c-2.15,0-4.18.65-4.3,3.38-.09,2.19,1.46,3.33,4.52,3.35,4.66,0,9.32,0,14,0h0c4.94,0,9.88,0,14.81,0,2.68,0,4.25-1.58,3.9-3.66C84.17,17.29,82.21,16.73,80.18,16.72Z"/><path class="cls-1" d="M94.77,15.45a4.67,4.67,0,0,0-4.85,4.65,4.91,4.91,0,0,0,4.56,4.73,4.85,4.85,0,0,0,4.87-4.69A4.79,4.79,0,0,0,94.77,15.45Z"/><path class="cls-1" d="M115.61,146.54c-7-2.5-14.11-4.92-20.49-8.92-2.05-1.28-3.1-.44-3.75,1.63q-2.37,7.51-4.85,15c-.91,2.72-1.46,5.59-3.46,8.93-1.71-6.72-6.42-12-1.59-18.82,2.45-3.49.34-6.88-3.88-8-2.92-.77-5.62-.38-7.82,1.85s-1,4.73-.15,7.16c.74,2,2.79,3.76,2.08,6.09a59.61,59.61,0,0,1-4.42,11.7c-.73-2-1.16-3.14-1.53-4.28-2.07-6.4-4.17-12.78-6.15-19.2-.82-2.63-2-3.29-4.49-1.72-5.74,3.61-12,6-18.48,8A13.42,13.42,0,0,0,27,158.49c-.1,1.71-.06,3.42-.05,5.13,0,11.13.05,11.1,10.29,15.24,14,5.66,28.59,7.11,43.58,6.73a96.38,96.38,0,0,0,32.9-6.83c10.16-4,10.09-4.16,10.1-15a43.62,43.62,0,0,0-.14-5.49C123,153,121,148.44,115.61,146.54Z"/><path class="cls-1" d="M75.27,130.21c8.26-.1,15-3.49,18.8-11.25,4.51-9.23,5.37-19,3.49-29-2.25-11.94-10.25-18.59-22.3-18.69C63.56,71.21,54.61,78.64,53,90a67.42,67.42,0,0,0-.73,10.23c.08,6.65,1,13.18,4.33,19.12C60.63,126.63,67.06,130.31,75.27,130.21Z"/></g></g></svg>