<svg xmlns="http://www.w3.org/2000/svg" viewBox="0 0 29.45 23"><defs><style>.cls-1{fill:#1c75bc;}</style></defs><g id="Layer_2" data-name="Layer 2"><g id="Layer_3" data-name="Layer 3"><path class="cls-1" d="M14.74,23C11,23,7.27,22.93,3.53,23A3.52,3.52,0,0,1,0,19.47C.05,14.17,0,8.88,0,3.59A3.32,3.32,0,0,1,3.26.07C3.74,0,4.23,0,4.72,0H25.28A4.39,4.39,0,0,1,28,.63a3.25,3.25,0,0,1,1.46,2.76c0,5.44,0,10.87,0,16.31A3.24,3.24,0,0,1,26.21,23c-3.82,0-7.65,0-11.47,0Zm0-1.69H25.91a1.65,1.65,0,0,0,1.84-1.85V3.62a1.62,1.62,0,0,0-1.82-1.85q-11.16,0-22.3,0A1.68,1.68,0,0,0,1.71,3.66q0,7.86,0,15.72a1.69,1.69,0,0,0,1.9,1.91Z"/><path class="cls-1" d="M14.76,9.07a4,4,0,0,1-4.09,4.1A4.1,4.1,0,1,1,10.72,5,4,4,0,0,1,14.76,9.07Zm-6.45,0a2.33,2.33,0,0,0,2.38,2.41,2.42,2.42,0,0,0-.07-4.83A2.31,2.31,0,0,0,8.31,9.08Z"/><path class="cls-1" d="M16.39,17.52V18c0,.9-.4,1.19-1.27.95a.52.52,0,0,1-.41-.57c0-.36,0-.72,0-1.08A1.49,1.49,0,0,0,13,15.67a3.88,3.88,0,0,0-.75.11,5.76,5.76,0,0,1-3.11,0,3.54,3.54,0,0,0-1-.13A1.43,1.43,0,0,0,6.67,17.1c0,.38,0,.76,0,1.14-.05.57-.24.69-.94.69-.49,0-.82-.16-.81-.71s0-.87,0-1.3a3.27,3.27,0,0,1,4.31-2.84,5.54,5.54,0,0,0,2.83,0,3.27,3.27,0,0,1,4.22,2.3A5.09,5.09,0,0,1,16.39,17.52Z"/><path class="cls-1" d="M21.21,14.82H18.66c-.45,0-.7-.17-.7-.63s-.11-.95.54-1.08a3,3,0,0,1,.43,0c1.55,0,3.11,0,4.67,0,.81,0,1,.2,1,.87s-.15.88-.84.88Z"/><path class="cls-1" d="M21.29,8.29c-.89,0-1.78,0-2.66,0-.54,0-.67-.18-.67-.82,0-.44,0-.86.63-.86,1.81,0,3.62,0,5.42,0,.58,0,.6.44.6.84s0,.84-.61.84Z"/><path class="cls-1" d="M21.31,11.54c-.89,0-1.78,0-2.66,0-.55,0-.69-.17-.69-.8s.13-.87.67-.87c1.77,0,3.54,0,5.32,0,.51,0,.68.25.66.89s-.16.78-.7.78C23,11.55,22.17,11.54,21.31,11.54Z"/></g></g></svg>