<svg xmlns="http://www.w3.org/2000/svg" viewBox="0 0 19.41 25.79"><defs><style>.cls-1{fill:#1c75bc;}</style></defs><g id="Layer_2" data-name="Layer 2"><g id="Layer_3" data-name="Layer 3"><path class="cls-1" d="M0,12.91V2.67A2.46,2.46,0,0,1,2.68,0C6,0,9.22,0,12.49,0a2.91,2.91,0,0,1,2.16.89q1.9,1.92,3.82,3.83A3,3,0,0,1,19.41,7c0,5.38,0,10.76,0,16.13a2.48,2.48,0,0,1-2.73,2.68h-14A2.43,2.43,0,0,1,0,23.15Zm1.66,0q0,3.11,0,6.21c0,1.36,0,2.72,0,4.07,0,.73.28,1,1,1H16.74c.69,0,.93-.25.93-.94,0-4.82,0-9.64,0-14.47,0-.47-.16-.61-.62-.6-1.43,0-2.86,0-4.29,0-1,0-1.5-.47-1.51-1.5,0-1.42,0-2.83,0-4.24,0-.55-.18-.7-.71-.69-2.56,0-5.11,0-7.67,0-1,0-1.22.19-1.22,1.21C1.66,6.22,1.67,9.55,1.66,12.87Zm13.6-6.42h1.88c.11,0,.27,0,.34-.09s-.05-.23-.14-.32q-2-2-4-4c-.08-.09-.18-.22-.31-.16s-.1.22-.1.34c0,1.25,0,2.5,0,3.75,0,.37.16.5.52.49Z"/><path class="cls-1" d="M9.66,16.15c-1.3,0-2.61,0-3.91,0-.68,0-.9-.19-.93-.76s.17-.85.83-.94a5.31,5.31,0,0,1,.69,0H13a5.31,5.31,0,0,1,.69,0c.77.09,1,.51.82,1.26-.12.42-.48.44-.82.44Z"/><path class="cls-1" d="M9.7,12.92h-4c-.65,0-.86-.21-.86-.82s.21-.83.85-.83h8c.65,0,.85.2.84.82s-.18.83-.83.83Z"/><path class="cls-1" d="M9.67,19.37h-4c-.65,0-.87-.21-.88-.8s.2-.86.88-.86h8c.71,0,.89.23.87.91s-.21.75-.91.76Z"/></g></g></svg>