<svg xmlns="http://www.w3.org/2000/svg" viewBox="0 0 36.05 39.55"><defs><style>.cls-1{fill:#414042;}</style></defs><g id="Layer_2" data-name="Layer 2"><g id="Layer_1_1980" data-name="Layer 1 1980"><path class="cls-1" d="M32.56,32.24c-2.09-4.16-7.39-7-13.58-7.32V22.77H28a2,2,0,0,0,.35,0,.84.84,0,0,0,.77-.78,2.44,2.44,0,0,0,0-.29V8.43l2.2,1.26.68.38a.92.92,0,0,0,.43.11.84.84,0,0,0,.74-.43.86.86,0,0,0-.32-1.16l-.17-.1L22,2.36,18.58.42a.92.92,0,0,0-.49-.14,1.06,1.06,0,0,0-.52.15l-1.8,1c-.47.27-.94.54-1.4.82,0-.45,0-.9,0-1.34A.86.86,0,0,0,13.41,0H9.6a.88.88,0,0,0-1,1V2.11c0,1,0,2,0,2.94a.69.69,0,0,1-.44.75C7,6.45,5.82,7.13,4.67,7.8L3.4,8.52A.87.87,0,0,0,3,9.75a.78.78,0,0,0,.7.42A1.18,1.18,0,0,0,4.25,10l1.47-.84c.44-.25.88-.5,1.3-.76V21.78a.89.89,0,0,0,1,1h9.08v2.14c-6.31.26-11.7,3.19-13.77,7.43a3.63,3.63,0,1,0,2,.4c1.9-3.36,6.5-5.69,11.77-5.93v5.67a3.61,3.61,0,1,0,1.91,0V26.82c5.21.27,9.74,2.59,11.62,5.91a3.63,3.63,0,1,0,2-.49ZM3.62,37.94a2,2,0,1,1,2-2A2,2,0,0,1,3.62,37.94ZM10.33,1.7h2.31c0,.52,0,1,0,1.55L10.33,4.57V1.7Zm17.1,16.76v2.59H22c0-1.46,0-2.91,0-4.37v-1.1a.86.86,0,0,0-.94-.95h-6a.88.88,0,0,0-.95.93v5.49H8.73V7.51c0-.06,0-.06,0-.09L18,2.18a.34.34,0,0,1,.14-.05.37.37,0,0,1,.15.06Q22.8,4.8,27.37,7.4c.06,0,.07,0,.07.11Q27.42,13,27.43,18.46ZM15.85,16.35h4.48v4.7H15.85C15.86,19.5,15.86,17.94,15.85,16.35Zm4.26,19.58a2,2,0,1,1-2-2A2,2,0,0,1,20.11,35.93Zm12.32,1.92a2,2,0,0,1-.16-4h.31a2,2,0,0,1-.15,4Z"/></g></g></svg>