<svg xmlns="http://www.w3.org/2000/svg" viewBox="0 0 49.04 47.08"><defs><style>.cls-1{fill:#414042;}</style></defs><g id="Layer_2" data-name="Layer 2"><g id="Layer_1_1980" data-name="Layer 1 1980"><path class="cls-1" d="M24.53,34.06H45.2c1.55,0,1.55,0,1.55-1.57V12.76c0-1.63-.22-1.85-1.81-1.85-1.88,0-3.76,0-5.64,0-.91,0-1.12-.41-1.15-1.21s.34-1.14,1.19-1.11c2,.05,4.08,0,6.11,0A3.24,3.24,0,0,1,49,12.17q0,12.45,0,24.9a3.32,3.32,0,0,1-3.65,3.64c-4.27,0-8.54,0-12.81,0-1.11,0-1.4.33-1.14,1.33a3.82,3.82,0,0,1,.18.93c0,1.24.5,1.91,1.85,1.73a2.63,2.63,0,0,1,.92.13A1.12,1.12,0,0,1,34.3,47a4.56,4.56,0,0,1-1,.07H15.75a5.62,5.62,0,0,1-.82,0,1.11,1.11,0,0,1-1.1-1.15,1.07,1.07,0,0,1,1-1.12c.11,0,.23,0,.34-.06.66-.18,1.57.3,2-.44a7.17,7.17,0,0,0,.56-3.09c0-.69-.62-.45-1-.46H3.54A3.39,3.39,0,0,1,0,37.14C0,33.07,0,29,0,24.92s0-8.37,0-12.56c0-2.5,1.26-3.74,3.77-3.74,2,0,4,0,6,0,.91,0,1.13.43,1.13,1.22s-.34,1.11-1.14,1.09c-2,0-3.91,0-5.87,0-1.07,0-1.48.45-1.48,1.48,0,6.93,0,13.86,0,20.79,0,1,.6.9,1.23.9Zm0,4.24H43.29c.78,0,1.56,0,2.35,0a1,1,0,0,0,1-1.34c-.18-.75-.91-.45-1.4-.45q-20.76,0-41.53,0c-.23,0-.47,0-.7,0-.52,0-.67.25-.65.74,0,1.08.8,1.08,1.58,1.08Zm-.06,6.37h3.27c1.75,0,1.75,0,1.47-1.68A13.24,13.24,0,0,1,29,41.61c0-.71-.43-.9-1.09-.89-1.6,0-3.2,0-4.79,0-3.44.07-2.63-.62-3.35,2.94-.15.74.16,1,.86,1C21.88,44.66,23.17,44.67,24.46,44.67Z"/><path class="cls-1" d="M24.54,29H11.74c-.93,0-1.76-.22-2-1.21a1.52,1.52,0,0,1,1.06-2.06c.92-.23,1-.76,1-1.53q0-9.81,0-19.61c0-3.13,1.44-4.58,4.6-4.58H32.66c3.28,0,4.78,1.52,4.78,4.85q0,9.51,0,19c0,.89,0,1.67,1.13,2a1.39,1.39,0,0,1,.89,1.72A1.58,1.58,0,0,1,37.92,29a18.88,18.88,0,0,1-2,0C32.13,29,28.34,29,24.54,29ZM20.37,14.54c0,3.68,0,7.36,0,11,0,.88.3,1.16,1.16,1.15q6.22,0,12.44,0c.82,0,1.09-.29,1.09-1.1,0-7.12,0-14.23,0-21.35,0-1.37-.47-1.83-1.84-1.84-3.88,0-7.75,0-11.62,0-.93,0-1.22.31-1.21,1.22C20.39,7.27,20.37,10.91,20.37,14.54Zm-3.41,0c0-3.6,0-7.19,0-10.79,0-.5.24-1.21-.59-1.31s-1.67-.15-2.13.79A2.6,2.6,0,0,0,14,4.51c0,7,0,14,0,21,0,1.17.55,1.23,1.44,1.22s1.57,0,1.55-1.26C16.91,21.83,17,18.19,17,14.56Z"/></g></g></svg>