<svg xmlns="http://www.w3.org/2000/svg" viewBox="0 0 33.41 29.69"><defs><style>.cls-1{fill:#1c75bc;}</style></defs><g id="Layer_2" data-name="Layer 2"><g id="Layer_3" data-name="Layer 3"><path class="cls-1" d="M12.45,29.68H1.07a1,1,0,0,1-.9-1.59.57.57,0,0,1,.5-.3h.74q10.92,0,21.85,0A3.37,3.37,0,0,0,25.52,27c1.81-1.48,3.64-2.93,5.45-4.41a1.15,1.15,0,0,0-.16-2,1.26,1.26,0,0,0-1.47.27c-1,.76-1.94,1.52-2.87,2.32a3.77,3.77,0,0,1-2.65,1c-3.09,0-6.19,0-9.29,0H14a1,1,0,0,1-1-1,.91.91,0,0,1,1-.89h4.07c.32,0,.65,0,1,0a1.32,1.32,0,0,0,1.26-1.34,1.25,1.25,0,0,0-1.31-1.32c-2.94,0-5.87,0-8.8,0a3.16,3.16,0,0,0-1.86.72c-.75.54-1.49,1.09-2.22,1.66a1.7,1.7,0,0,1-1.08.36c-1.37,0-2.75,0-4.12,0-.75,0-.89-.15-.9-.91s.1-1,.86-1c1.13,0,2.26,0,3.38,0A1.82,1.82,0,0,0,5.57,20c.57-.47,1.18-.89,1.78-1.32a5.38,5.38,0,0,1,3.28-1.06h8.12a3.33,3.33,0,0,1,3.42,4.21c-.12.35,0,.45.34.44h1.72a1.16,1.16,0,0,0,.77-.34c1.1-.89,2.18-1.81,3.3-2.67a3.12,3.12,0,1,1,3.85,4.91c-1.39,1.14-2.81,2.26-4.22,3.39-2.9,2.35-2.64,2.14-6.25,2.14Z"/><path class="cls-1" d="M16.72,14.91c-.83,0-1-.12-1-.95,0-.57-.08-.9-.76-1a3.14,3.14,0,0,1-1.63-.68.55.55,0,0,1-.1-.93c.71-.73.78-.8,1.66-.42a6.25,6.25,0,0,0,3.27.11A1,1,0,0,0,19,10a1.05,1.05,0,0,0-.85-1.07l-3-.85a3.31,3.31,0,0,1-2.49-2.31A3,3,0,0,1,15.06,2c.55-.09.7-.3.69-.83,0-1,.64-1.41,1.58-1,.36.14.38.45.38.77,0,1.18.05,1,1,1.15a3.74,3.74,0,0,1,1.5.69.51.51,0,0,1,.1.8c-.52.73-.81.78-1.68.5a7.76,7.76,0,0,0-3.29-.11.94.94,0,0,0-.8,1,1,1,0,0,0,.71,1.16c1.1.34,2.2.65,3.3,1a3,3,0,0,1,2.14,4.27A2.8,2.8,0,0,1,18.48,13c-.64.11-.8.36-.78.95C17.74,14.83,17.62,14.91,16.72,14.91Z"/></g></g></svg>