<svg xmlns="http://www.w3.org/2000/svg" viewBox="0 0 48.92 49.08"><defs><style>.cls-1{fill:#414042;}</style></defs><g id="Layer_2" data-name="Layer 2"><g id="Layer_1_1980" data-name="Layer 1 1980"><path class="cls-1" d="M24.62,0H39.45c2.7,0,4.08,1.34,4.19,4.07.06,1.36,0,2.72,0,4.08,0,1.07.36,1.52,1.48,1.59,2.71.16,3.78,1.35,3.78,4.05q0,12.87,0,25.74c0,2.86-1.27,4.11-4.19,4.12-4.7,0-9.39,0-14.08,0-.75,0-1.78-.27-1.72,1.06.06,1.08.3,2.05,1.75,1.88a5.53,5.53,0,0,1,.91,0c.8,0,1.63.17,1.64,1.16S32.39,49,31.61,49c-2.67,0-5.35,0-8,0-1.87,0-3.74,0-5.61,0-.94,0-2.15,0-2.13-1.31s1.19-1.18,2.07-1.13c1.2.08,1.86-.26,2.1-1.56.2-1.13-.13-1.42-1.21-1.41-3.38,0-6.76,0-10.14,0-1.62,0-3.23,0-4.84,0C1.44,43.6,0,42.24,0,39.88Q0,26.71,0,13.53c0-2.36,1.23-3.7,3.62-3.75,1.52,0,1.92-.63,1.82-2s0-2.52,0-3.78c0-2.69,1.29-4,4-4C14.52,0,19.57,0,24.62,0Zm-.16,35.72c4.95,0,9.9,0,14.85,0,1.33,0,1.89-.35,1.88-1.79,0-9.75,0-19.5,0-29.24,0-1.95-.27-2.22-2.17-2.22H10.05c-1.91,0-2.12.21-2.12,2.06,0,9.8,0,19.6,0,29.4,0,1.42.52,1.81,1.87,1.8C14.66,35.7,19.56,35.73,24.46,35.73Zm0,2.49H4.2c-1.54,0-2.08.71-1.61,2,.33.93,1.13.88,1.89.88h40c1.11,0,2-.13,2-1.59s-1-1.34-2-1.34ZM5.44,24c0-3.43,0-6.86,0-10.29,0-1.29-.58-1.56-1.67-1.44-1.29.14-1.29,1.07-1.29,2,0,6.61,0,13.21,0,19.82,0,1.06.18,1.71,1.47,1.71s1.51-.59,1.5-1.68C5.42,30.71,5.44,27.33,5.44,24Zm41,.21c0-3.38,0-6.77,0-10.15,0-1-.24-1.76-1.48-1.8s-1.3.79-1.3,1.7q0,10.07,0,20.14c0,.94.07,1.68,1.34,1.7S46.45,35,46.44,34C46.42,30.72,46.43,27.44,46.43,24.16Zm-22,22.52c.74-.41,2.15.64,2.18-1.08,0-1.46-.51-1.93-2-1.94-1.7,0-2.24.48-2.13,2.12C22.53,47.26,23.78,46.26,24.41,46.68Z"/><path class="cls-1" d="M24.42,21.9H20a1.35,1.35,0,0,1-1.56-1.44c-.11-2.55-.21-5.09,2-7,.71-.61.22-1.18,0-1.76a4.5,4.5,0,0,1,1.7-5.58,4.44,4.44,0,0,1,5.85,1,4.21,4.21,0,0,1,.56,4.56,1.57,1.57,0,0,0,.31,2.1c1.88,1.9,2,4.32,1.72,6.79A1.41,1.41,0,0,1,29,21.9Zm.15-2.29v0c.86,0,1.71,0,2.57,0a.91.91,0,0,0,1-.9,4,4,0,0,0-3.21-4.3,3.67,3.67,0,0,0-3.93,3c-.29,1.88,0,2.22,1.91,2.23ZM24.54,8a1.85,1.85,0,0,0-2,1.86,1.74,1.74,0,0,0,1.79,2A1.82,1.82,0,0,0,26.4,9.92,1.84,1.84,0,0,0,24.54,8Z"/><path class="cls-1" d="M30.06,30.3c2.06,0,4.12,0,6.18,0,.9,0,1.86.16,1.81,1.32s-1,1.15-1.81,1.15H23.57c-.84,0-1.75-.08-1.8-1.15s.9-1.31,1.8-1.32C25.73,30.28,27.89,30.3,30.06,30.3Z"/><path class="cls-1" d="M29.77,27.35H23.44c-.81,0-1.61-.14-1.65-1.13s.75-1.34,1.62-1.34q6.49,0,13,0c.87,0,1.7.32,1.68,1.33s-.86,1.13-1.65,1.14Z"/><path class="cls-1" d="M18.6,28.44c1,1.54.56,3.19.3,4.79-.11.66-.86.78-1.49.78H11.2a1.46,1.46,0,0,1-1.67-1.54q-.07-3.18,0-6.36c0-1.09.64-1.62,1.76-1.61,2,0,4,0,6,0,.45,0,1-.07,1.19.45s-.37.76-.6,1.13h0a16.89,16.89,0,0,0-4.49-.22c-2.45,0-2.45,0-2.45,2.47,0,4.36,0,4.36,4.34,4.35,1.85,0,2.38.34,2.28-2.21a6.79,6.79,0,0,1,.24-1.32Z"/><path class="cls-1" d="M18.6,28.44c-.25.23-.5.46-.74.7a10.15,10.15,0,0,0-2.63,2.21c-.77.71-1.37.67-2-.14-.43-.56-.9-1.08-1.33-1.64s-.13-.84.24-1.18.87-.48,1.17,0c.88,1.35,1.59.61,2.37-.1a13.39,13.39,0,0,0,2.25-2.2h0a1.1,1.1,0,0,1,1.51.52C19.94,27.55,18.84,27.81,18.6,28.44Z"/></g></g></svg>