<svg xmlns="http://www.w3.org/2000/svg" viewBox="0 0 20.27 29.57"><defs><style>.cls-1{fill:#1c75bc;}</style></defs><g id="Layer_2" data-name="Layer 2"><g id="Layer_3" data-name="Layer 3"><path class="cls-1" d="M0,14.79V3.05c0-1.9.9-3,2.4-3H17.85c1.47,0,2.41,1.15,2.41,3.06q0,11.73,0,23.47c0,1.9-.94,3-2.41,3H2.4C.88,29.57,0,28.45,0,26.52Zm18.71.05V3.11c0-.91-.2-1.18-.91-1.18H2.4c-.67,0-.91.3-.91,1.15q0,11.67,0,23.34c0,1,.22,1.24,1,1.24H17.73c.8,0,1-.23,1-1.27Z"/><path class="cls-1" d="M10.08,22.2c-2.11,0-4.22,0-6.33,0-.73,0-.87-.18-.87-1.11V4.81c0-.92.15-1.12.87-1.12H16.51c.69,0,.87.2.87,1.09q0,8.16,0,16.34c0,.88-.19,1.08-.87,1.08C14.37,22.21,12.23,22.2,10.08,22.2Zm.1-16.52c-1.76,0-3.52,0-5.28,0-.33,0-.47.09-.47.53V19.66c0,.45.13.62.48.62q5.24,0,10.47,0c.32,0,.45-.15.45-.58V6.18c0-.41-.11-.52-.42-.51C13.66,5.69,11.92,5.68,10.18,5.68Z"/><path class="cls-1" d="M10.15,25.89c-.76,0-1.51,0-2.26,0-.5,0-.68-.27-.69-.91s.17-1,.69-1q2.25,0,4.5,0c.49,0,.62.25.62,1s-.15.91-.61.92C11.65,25.9,10.9,25.89,10.15,25.89Z"/></g></g></svg>