<svg xmlns="http://www.w3.org/2000/svg" viewBox="0 0 35.84 42.12"><defs><style>.cls-1{fill:#414042;}</style></defs><g id="Layer_2" data-name="Layer 2"><g id="Layer_1_1980" data-name="Layer 1 1980"><path class="cls-1" d="M3.13,36.67A3,3,0,0,1,0,33.52V3.17A3.08,3.08,0,0,1,1.25.57,3,3,0,0,1,3.11,0H9.83c2,0,4,0,6,0h0a3.16,3.16,0,0,1,2.43,1c.94,1,1.9,1.87,2.86,2.79l1.37,1.32,3.3,3.22a1.87,1.87,0,0,1,.57,1.39V23.79a1,1,0,0,1-.67,1,1.25,1.25,0,0,1-.32.05,1,1,0,0,1-.95-.77,3.23,3.23,0,0,1-.05-.6V10.33H18.89a2.94,2.94,0,0,1-3.07-3.07V2H3.19A1.06,1.06,0,0,0,2,3.2V33.55a1,1,0,0,0,.65,1.05,1.73,1.73,0,0,0,.68.09H17.41a1,1,0,0,1,.23,1.88,1.49,1.49,0,0,1-.59.09ZM17.84,3.47c0,1.12,0,2.23,0,3.35v.59A.81.81,0,0,0,18,8a1.07,1.07,0,0,0,1,.39h4s-5.07-4.93-5.08-4.95Z"/><path class="cls-1" d="M3.13,36.57A2.92,2.92,0,0,1,.47,35.09,3,3,0,0,1,.1,33.52V3.17A3,3,0,0,1,1.31.65,3,3,0,0,1,3.11.11H9.83c2,0,4,0,6,0h0a3.07,3.07,0,0,1,2.36,1c.94,1,1.9,1.87,2.86,2.79l1.37,1.32,3.3,3.22a1.76,1.76,0,0,1,.54,1.32V23.79a.88.88,0,0,1-.6.93,1,1,0,0,1-.29.05.85.85,0,0,1-.85-.69,3,3,0,0,1-.05-.58V10.23H18.89a2.82,2.82,0,0,1-3-3V1.91H3.19A1.16,1.16,0,0,0,1.89,3.2V33.55a1.13,1.13,0,0,0,.71,1.14,1.77,1.77,0,0,0,.72.1H17.4a.83.83,0,0,1,.77.76.85.85,0,0,1-.56.93,1.75,1.75,0,0,1-.56.09ZM17.74,3.48c0,1.11,0,2.22,0,3.34v.59a.94.94,0,0,0,.19.6,1.17,1.17,0,0,0,1,.43h4.2L17.74,3.16Z"/><path class="cls-1" d="M.5,18.35V3.17A2.6,2.6,0,0,1,1.55,1,2.58,2.58,0,0,1,3.11.51c4.24,0,8.48,0,12.72,0a2.66,2.66,0,0,1,2.08.85c1.38,1.4,2.82,2.75,4.23,4.12l3.31,3.22a1.38,1.38,0,0,1,.41,1v4q0,5,0,10c0,.26-.06.46-.33.55a.47.47,0,0,1-.62-.34,2.74,2.74,0,0,1,0-.5V10.27c0-.44,0-.44-.44-.44H18.89a2.44,2.44,0,0,1-2.57-2.57V1.87c0-.35,0-.36-.36-.36H3.19A1.55,1.55,0,0,0,1.49,3.2V33.55a1.52,1.52,0,0,0,1,1.51,2.28,2.28,0,0,0,1,.13h14a.43.43,0,0,1,.41.41.45.45,0,0,1-.3.51,1.22,1.22,0,0,1-.42.06H3.13A2.51,2.51,0,0,1,.82,34.89,2.61,2.61,0,0,1,.5,33.52V18.35ZM17.36,2.25c0,.45,0,.84,0,1.23q0,2,0,3.93a1.34,1.34,0,0,0,.27.84A1.57,1.57,0,0,0,19,8.84h4.83c.08,0,.18,0,.21-.07s-.06-.12-.11-.17l-2.07-2L18.23,3.08C18,2.81,17.68,2.56,17.36,2.25Z"/><path class="cls-1" d="M14.68,22.37H9.54a1,1,0,0,1-.31-2,2.17,2.17,0,0,1,.36,0H21a1,1,0,0,1,1,1,1,1,0,0,1-1,1H14.68Z"/><path class="cls-1" d="M15.18,21.86H9.54c-.39,0-.58-.14-.6-.45a.46.46,0,0,1,.39-.52,1.69,1.69,0,0,1,.32,0H20.92a.52.52,0,0,1,.5.49.49.49,0,0,1-.53.49H15.18Z"/><path class="cls-1" d="M9.67,15.13a2.2,2.2,0,0,1-.48,0A.93.93,0,0,1,8.44,14a.89.89,0,0,1,.94-.84H20.81a1,1,0,0,1,1,1.42.91.91,0,0,1-.6.5,1.88,1.88,0,0,1-.59.07Z"/><path class="cls-1" d="M15.15,13.65h5.66c.26,0,.46,0,.56.31a.46.46,0,0,1-.3.63,1.38,1.38,0,0,1-.45.05h-11a1.55,1.55,0,0,1-.37,0c-.29-.06-.39-.23-.37-.55a.41.41,0,0,1,.46-.39h5.76Z"/><path class="cls-1" d="M10.18,29.62c-.3,0-.61,0-.91,0a1,1,0,0,1,0-1.94l.53,0h7.78l.7,0a1,1,0,0,1,.91.91,1,1,0,0,1-.78,1,2.29,2.29,0,0,1-.52.05H10.18Z"/><path class="cls-1" d="M13.77,28.1h3.85l.66,0a.47.47,0,0,1,.45.45.45.45,0,0,1-.38.5,2,2,0,0,1-.42,0H10.18a6,6,0,0,1-.85,0c-.29,0-.4-.2-.39-.5s.13-.41.43-.45l.47,0Z"/><path class="cls-1" d="M4.86,15.86a1.12,1.12,0,0,1-.84-.4c-.35-.41-.68-.82-1-1.24a1,1,0,0,1,.12-1.43.94.94,0,0,1,.61-.22,1.12,1.12,0,0,1,.84.41l.29.35,1.45-1.69a1.16,1.16,0,0,1,.83-.45,1,1,0,0,1,1,1.08.8.8,0,0,1-.29.64L6.91,14l-.59.7c-.21.25-.42.5-.64.74A1.12,1.12,0,0,1,4.86,15.86Z"/><path class="cls-1" d="M7.66,12.27c0,.13-.1.23-.2.35-.47.53-.92,1.07-1.37,1.61l-.78.91a.57.57,0,0,1-.91,0c-.34-.4-.67-.81-1-1.22a.5.5,0,0,1,.05-.74.53.53,0,0,1,.75.14c.18.21.36.42.52.64s.17.14.28,0c.56-.67,1.13-1.33,1.7-2,.25-.28.44-.33.7-.2A.5.5,0,0,1,7.66,12.27Z"/><path class="cls-1" d="M4.86,30.07a1.1,1.1,0,0,1-.8-.37c-.38-.44-.74-.9-1.1-1.37a.93.93,0,0,1,0-1.08.94.94,0,0,1,.84-.48,1,1,0,0,1,.8.39l.32.39c.28-.35,1.37-1.63,1.37-1.63l.13-.16a1.19,1.19,0,0,1,.82-.37.91.91,0,0,1,.62.24,1,1,0,0,1,.05,1.47c-.72.87-1.45,1.73-2.19,2.59A1,1,0,0,1,4.86,30.07Z"/><path class="cls-1" d="M3.77,27.27a.5.5,0,0,1,.39.2c.18.23.37.45.56.68s.18.14.29,0c.53-.65,1.08-1.28,1.61-1.92a1.31,1.31,0,0,1,.11-.12c.25-.26.54-.3.75-.11a.51.51,0,0,1,0,.77c-.73.87-1.45,1.73-2.19,2.59a.56.56,0,0,1-.85,0c-.38-.43-.74-.89-1.09-1.34a.44.44,0,0,1,0-.53A.45.45,0,0,1,3.77,27.27Z"/><path class="cls-1" d="M4.81,23a1.14,1.14,0,0,1-.89-.5c-.28-.33-.5-.61-.73-.89l-.14-.18a1,1,0,0,1,.08-1.49,1,1,0,0,1,.61-.22,1.15,1.15,0,0,1,.88.47l.25.31L5.93,19.2l.41-.5a1.13,1.13,0,0,1,.83-.41,1,1,0,0,1,.68.27,1,1,0,0,1,0,1.43L5.68,22.58a1.08,1.08,0,0,1-.8.37Z"/><path class="cls-1" d="M4.85,22.45c-.3,0-.44-.21-.6-.39s-.54-.66-.81-1a.54.54,0,0,1,0-.79c.24-.19.54-.12.78.17l.42.52c.18.22.24.23.43,0,.42-.48.82-1,1.23-1.45L6.72,19a.54.54,0,0,1,.8-.1.51.51,0,0,1,0,.74L5.3,22.26A.6.6,0,0,1,4.85,22.45Z"/><path class="cls-1" d="M31.35,26A8.39,8.39,0,0,0,18.72,33.3c0,.06,0,.12,0,.19s0,.08,0,.12a8.56,8.56,0,0,0,4.51,7.5,8.16,8.16,0,0,0,4,1h.11a8.55,8.55,0,0,0,4-16.08ZM27.12,39.7l-.5,0c0-.63,0-1.26,0-1.89V36.53a1.14,1.14,0,0,0-.74-1.18,2.59,2.59,0,0,1-1.28-1.16,2.16,2.16,0,0,1-.11-1.74,2.33,2.33,0,0,1,.71-.82v.06c0,.3,0,.59,0,.88a1.37,1.37,0,0,0,.09.58.86.86,0,0,0,.41.62c.12.08.3.08.35.26a.08.08,0,0,0,.07,0,9.58,9.58,0,0,1,1.93-.1,1,1,0,0,0,.87-.43,1.14,1.14,0,0,0,.38-.91v-.88l0,0a2.17,2.17,0,0,1,.76,1.65,1.88,1.88,0,0,1-.26.84,2.62,2.62,0,0,1-1.31,1.11,1.14,1.14,0,0,0-.75,1.14v3.17C27.56,39.69,27.34,39.7,27.12,39.7ZM29,39.43V38.14c0-.47,0-.94,0-1.41a.29.29,0,0,1,0-.17A4.17,4.17,0,0,0,29.9,36a3.58,3.58,0,0,0,.79-.81,3.39,3.39,0,0,0-.1-4.1,4.69,4.69,0,0,0-1.38-1.13.31.31,0,0,0-.24-.14l-.11,0-.17.06a.77.77,0,0,0-.56.43,1.72,1.72,0,0,0-.05.68c0,.31,0,.63,0,.94v.55l-.11.1H26.56a.21.21,0,0,1-.13,0,.2.2,0,0,1,0-.12l0-.17a1.79,1.79,0,0,0,0-.51,3.47,3.47,0,0,1,0-.64,2.93,2.93,0,0,0-.05-.78.64.64,0,0,0-.64-.5.78.78,0,0,0-.33.07,3.55,3.55,0,0,0-2,1.94,3.43,3.43,0,0,0,.19,3.08A3.27,3.27,0,0,0,25,36.33a1.23,1.23,0,0,1,.39.35.94.94,0,0,1,0,.35c0,.81,0,1.62,0,2.42a6.38,6.38,0,1,1,3.6,0Z"/></g></g></svg>