<svg xmlns="http://www.w3.org/2000/svg" viewBox="0 0 28.36 48.15"><defs><style>.cls-1{fill:#414042;}</style></defs><g id="Layer_2" data-name="Layer 2"><g id="Layer_1_1980" data-name="Layer 1 1980"><path class="cls-1" d="M4.59,48.15A4.33,4.33,0,0,1,0,43.51V4.64A4.32,4.32,0,0,1,4.59,0H23.77a4.32,4.32,0,0,1,4.58,4.64V29.27q0,7.17,0,14.35a4.28,4.28,0,0,1-2.49,4.11,4.72,4.72,0,0,1-2.09.42H4.59ZM3.28,41.91a4.69,4.69,0,0,0-1,.05c0,.08,0,.52,0,.94v.35a6.15,6.15,0,0,0,0,1.07,2,2,0,0,0,2.11,1.55H24.16A2,2,0,0,0,26.07,44c0-.28,0-.55,0-.83a10.28,10.28,0,0,1,0-1.11V41.9H3.28Zm22.8-2.2V7.7H2.27v32ZM25,5.43a4.35,4.35,0,0,0,1-.06,6.68,6.68,0,0,0,0-1A2,2,0,0,0,24,2.28H4.34a2,2,0,0,0-2.07,2V5.42Z"/><path class="cls-1" d="M27.85,24.13q0,9.75,0,19.49a3.76,3.76,0,0,1-2.21,3.66,4.31,4.31,0,0,1-1.87.37H4.59A3.84,3.84,0,0,1,.5,43.51V4.64A3.83,3.83,0,0,1,4.59.51q9.59,0,19.18,0a3.84,3.84,0,0,1,4.08,4.14Q27.87,14.39,27.85,24.13Zm-1.26-.42q0-7.87,0-15.74c0-.77,0-.77-.78-.77H2.56c-.79,0-.79,0-.79.77V39.45c0,.76,0,.76.78.76H25.8c.78,0,.78,0,.78-.81Q26.6,31.56,26.59,23.71ZM14.18,41.41H3.28c-1.51,0-1.51,0-1.51,1.49a8.41,8.41,0,0,0,.06,1.51,2.53,2.53,0,0,0,2.6,2H24.18A2.51,2.51,0,0,0,26.57,44c0-.65,0-1.29,0-1.93s-.18-.67-.69-.67C22,41.42,18.08,41.41,14.18,41.41Zm0-35.48H25c1.6,0,1.6,0,1.55-1.62A2.5,2.5,0,0,0,24,1.78H4.34A2.49,2.49,0,0,0,1.78,4.3c0,.31,0,.62,0,.94,0,.67,0,.68.71.69Z"/><path class="cls-1" d="M24.52,31c0,.49,0,1,0,1.46A1.47,1.47,0,0,1,23,34q-1.56.06-3.12,0a1.45,1.45,0,0,1-1.46-1.48c0-1,0-2.08,0-3.12A1.47,1.47,0,0,1,20,27.92c1,0,2,0,3,0a1.49,1.49,0,0,1,1.5,1.53C24.53,30,24.52,30.46,24.52,31Zm-3.09,1.76h1.3c.34,0,.52-.12.52-.48,0-.87,0-1.74,0-2.6,0-.34-.17-.46-.49-.46H20.21c-.34,0-.5.15-.5.5q0,1.27,0,2.55c0,.36.18.49.52.48Z"/><path class="cls-1" d="M3.84,14.26c0-.51,0-1,0-1.51a1.5,1.5,0,0,1,1.48-1.51c1,0,2.05,0,3.07,0A1.48,1.48,0,0,1,9.9,12.72c0,1,0,2,0,3.08a1.46,1.46,0,0,1-1.53,1.5q-1.48,0-3,0a1.49,1.49,0,0,1-1.56-1.58C3.83,15.23,3.84,14.74,3.84,14.26Zm1.27,0v1.35c0,.28.13.42.41.42h2.7c.28,0,.42-.13.42-.41,0-.9,0-1.8,0-2.7,0-.28-.14-.41-.42-.41H5.52c-.31,0-.42.17-.41.46Z"/><path class="cls-1" d="M24.52,14.3c0,.49,0,1,0,1.46a1.46,1.46,0,0,1-1.45,1.53q-1.59.08-3.18,0a1.44,1.44,0,0,1-1.44-1.49c0-1,0-2,0-3.07A1.48,1.48,0,0,1,20,11.24q1.48,0,3,0a1.5,1.5,0,0,1,1.55,1.55C24.53,13.29,24.52,13.8,24.52,14.3Zm-1.27,0c0-.45,0-.9,0-1.35,0-.29-.11-.46-.42-.46h-2.7a.36.36,0,0,0-.41.41v2.65c0,.33.15.47.47.47h2.6c.33,0,.47-.15.46-.47S23.25,14.73,23.25,14.32Z"/><path class="cls-1" d="M6.89,19.58H8.35A1.48,1.48,0,0,1,9.9,21.07c0,1,0,2.05,0,3.07a1.46,1.46,0,0,1-1.54,1.5c-1,0-2,0-3,0a1.48,1.48,0,0,1-1.56-1.59q0-1.46,0-2.91a1.5,1.5,0,0,1,1.54-1.56C5.88,19.56,6.38,19.58,6.89,19.58Zm0,4.8H8.1c.36,0,.55-.12.54-.51,0-.85,0-1.69,0-2.54,0-.32-.11-.49-.45-.48H5.54c-.31,0-.43.15-.43.45v2.64c0,.31.14.44.44.44Z"/><path class="cls-1" d="M24.52,22.64c0,.49,0,1,0,1.46a1.46,1.46,0,0,1-1.45,1.53q-1.59.07-3.18,0a1.44,1.44,0,0,1-1.44-1.48c0-1,0-2,0-3.08A1.48,1.48,0,0,1,20,19.58q1.48,0,3,0a1.5,1.5,0,0,1,1.55,1.55C24.53,21.63,24.52,22.14,24.52,22.64Zm-1.27,0c0-.44,0-.87,0-1.3s-.11-.52-.48-.52c-.86,0-1.73,0-2.59,0-.34,0-.47.15-.47.48,0,.86,0,1.73,0,2.59,0,.34.15.47.48.47h2.59c.34,0,.47-.16.46-.48S23.25,23.07,23.25,22.66Z"/><path class="cls-1" d="M3.84,31c0-.51,0-1,0-1.51a1.5,1.5,0,0,1,1.53-1.52c1,0,2,0,3,0A1.48,1.48,0,0,1,9.9,29.4Q10,31,9.9,32.52A1.44,1.44,0,0,1,8.43,34c-1,0-2,0-3.08,0a1.48,1.48,0,0,1-1.51-1.57C3.83,31.92,3.84,31.43,3.84,31Zm3,1.77H8.1c.36,0,.55-.12.54-.51,0-.85,0-1.69,0-2.54,0-.32-.11-.49-.45-.48H5.54c-.31,0-.43.15-.43.45v2.64c0,.31.14.44.44.44Z"/><path class="cls-1" d="M14.22,11.24h1.41a1.49,1.49,0,0,1,1.57,1.47c0,1,0,2.09,0,3.13a1.44,1.44,0,0,1-1.47,1.46c-1,0-2.06,0-3.08,0a1.44,1.44,0,0,1-1.49-1.49c0-1,0-2.05,0-3.08a1.48,1.48,0,0,1,1.55-1.49Zm1.72,3c0-.43,0-.87,0-1.3s-.13-.48-.46-.48h-2.6c-.34,0-.47.15-.46.48v2.55c0,.34.12.51.48.51h2.55c.36,0,.5-.17.49-.51S15.94,14.7,15.94,14.28Z"/><path class="cls-1" d="M17.21,22.66c0,.48,0,1,0,1.46a1.47,1.47,0,0,1-1.52,1.52c-1,0-2,0-3,0a1.47,1.47,0,0,1-1.51-1.54c0-1,0-2,0-3a1.5,1.5,0,0,1,1.6-1.55h2.87a1.51,1.51,0,0,1,1.59,1.57C17.23,21.65,17.21,22.15,17.21,22.66Zm-1.27,0c0-.42,0-.84,0-1.25s-.14-.53-.52-.53c-.83,0-1.66,0-2.49,0-.34,0-.52.11-.51.48,0,.85,0,1.7,0,2.55,0,.35.13.51.49.51h2.54c.37,0,.5-.17.49-.51S15.94,23,15.94,22.62Z"/><path class="cls-1" d="M14.18,27.92c.49,0,1,0,1.46,0a1.49,1.49,0,0,1,1.56,1.49c0,1,0,2.05,0,3.07A1.46,1.46,0,0,1,15.71,34c-1,0-2.05,0-3.07,0a1.46,1.46,0,0,1-1.49-1.51c0-1,0-2,0-3a1.5,1.5,0,0,1,1.57-1.53C13.21,27.91,13.7,27.92,14.18,27.92Zm0,1.27h-1.3c-.29,0-.45.11-.45.42v2.66c0,.3.13.45.44.45h2.65c.27,0,.42-.12.42-.4,0-.91,0-1.81,0-2.71,0-.28-.14-.41-.42-.41Z"/><path class="cls-1" d="M14.16,45.55a1.68,1.68,0,0,1-1.63-1.63A1.64,1.64,0,0,1,13,42.76a1.63,1.63,0,0,1,2.81,1.13,1.56,1.56,0,0,1-.48,1.16,1.62,1.62,0,0,1-1.16.5Z"/><path class="cls-1" d="M14.16,45.05a1.15,1.15,0,1,1,1.16-1.15A1.18,1.18,0,0,1,14.16,45.05Z"/><path class="cls-1" d="M12.41,4.5H9.8c-.57,0-.86-.22-.84-.63s.4-.62.8-.63q2.65,0,5.31,0c.38,0,.75.11.82.57s-.22.67-.72.68c-.92,0-1.84,0-2.76,0Z"/><path class="cls-1" d="M18.65,3.88a.88.88,0,1,1-1.76,0,.87.87,0,0,1,.9-.86A.9.9,0,0,1,18.65,3.88Z"/></g></g></svg>