<svg xmlns="http://www.w3.org/2000/svg" viewBox="0 0 33.14 25.77"><defs><style>.cls-1{fill:#1c75bc;}</style></defs><g id="Layer_2" data-name="Layer 2"><g id="Layer_3" data-name="Layer 3"><path class="cls-1" d="M25.73,15c0-1.69,0-3.38,0-5.07a1.24,1.24,0,0,0-.51-1.05Q21.15,5.6,17.1,2.3a.68.68,0,0,0-1,0Q12,5.64,7.86,8.94a1,1,0,0,0-.37,1v9.73c0,.2,0,.41,0,.61,0,.49-.2.64-.65.35a.94.94,0,0,0-.44-.18c-.78-.06-.91-.5-.9-1.2,0-2.47,0-4.94,0-7.4,0-.24.13-.57-.11-.69s-.46.19-.66.34c-.44.33-.87.68-1.3,1a.58.58,0,0,1-.94-.08A3.62,3.62,0,0,0,2.13,12c-.36-.38-.32-.67.1-1Q8.7,5.82,15.15.61a2,2,0,0,1,2.92,0l7,5.7c.15.12.3.35.52.22s.1-.34.11-.52c0-.57,0-1.14,0-1.71s.2-.66.66-.69c1.12-.07,1.29.07,1.3,1.19s0,2,0,3.06a1,1,0,0,0,.42.88c.93.7,1.82,1.44,2.75,2.15.47.35.48.67.12,1.11-.63.77-.78.84-1.31.44s-1-.83-1.53-1.23c-.1-.08-.2-.26-.35-.18s-.1.25-.1.39V15.8c0,1.27,0,2.53,0,3.8,0,.43-.13.68-.6.73a2.08,2.08,0,0,0-.8.29c-.47.27-.57.07-.57-.36Z"/><path class="cls-1" d="M22.1,25.71A9.58,9.58,0,0,1,17,24.43a.82.82,0,0,0-.9,0,10.15,10.15,0,0,1-9.24.37,2.48,2.48,0,0,0-2.56,0,7.47,7.47,0,0,1-3.58.91c-.5,0-.7-.2-.72-.68,0-1.07.06-1.19,1.11-1.27a6.89,6.89,0,0,0,3.46-1.25c1-.69,1-.68,1.93,0a8.5,8.5,0,0,0,9.33-.16,1.05,1.05,0,0,1,1.47,0c2.59,2,7.3,1.9,9.63-.05a.92.92,0,0,1,1.32,0,7,7,0,0,0,4.11,1.53c.72,0,.83.27.75,1.33,0,.59-.4.59-.86.57A9.1,9.1,0,0,1,28,24.45a.75.75,0,0,0-.85,0A9.5,9.5,0,0,1,22.1,25.71Z"/><path class="cls-1" d="M16.58,9.14c.65,0,1.3,0,2,0a1.63,1.63,0,0,1,1.73,1.59,21.47,21.47,0,0,1,0,4.39,1.56,1.56,0,0,1-1.59,1.48c-1.38,0-2.77,0-4.15,0a1.57,1.57,0,0,1-1.64-1.69c0-1.34,0-2.68,0-4a1.68,1.68,0,0,1,1.75-1.73C15.28,9.13,15.93,9.14,16.58,9.14Zm0,2H15.26a.42.42,0,0,0-.49.47v2.56c0,.32.14.51.47.51h2.68a.4.4,0,0,0,.45-.45c0-.45,0-.9,0-1.34C18.37,11.12,18.37,11.12,16.6,11.13Z"/></g></g></svg>