<svg xmlns="http://www.w3.org/2000/svg" viewBox="0 0 112.83 39.57"><defs><style>.cls-1{fill:#010101;}.cls-2{fill:none;stroke:#010101;stroke-miterlimit:10;stroke-width:1.5px;}</style></defs><g id="Layer_2" data-name="Layer 2"><g id="Layer_1_1980" data-name="Layer 1 1980"><path class="cls-1" d="M14.66,34.59a1.59,1.59,0,0,1,.33.92.9.9,0,0,0,0,.12s0,.09,0,.15a1.23,1.23,0,0,1-.23.69,2.34,2.34,0,0,1-.73.74.65.65,0,0,1-.34.21,1.52,1.52,0,0,1-.71.35,1.26,1.26,0,0,1-.47.33l-.39,0-.34.36-.41,0-.13,0-.31.07h-.06l-.46.09h-.15l-.17,0-.29.13-.41.09-.49,0-.22.13.07.06a2.78,2.78,0,0,0-.76.17h-.1l-.81,0H7.06l-1.23.09-.41,0A1,1,0,0,1,5,39.5a1.13,1.13,0,0,1-.63-.12L4,39.57l-.23-.16a2,2,0,0,1-1.05-.06l-.09,0H2.49a1,1,0,0,1-.25.07l-.88-.46-.39,0a1.36,1.36,0,0,1-.66-.5A1.59,1.59,0,0,1,0,37.7a3.31,3.31,0,0,1,.13-.85l.37-.51.51,0A.56.56,0,0,1,1.47,36c.45-.05.71.28.79,1a1.78,1.78,0,0,0-.51.23,1.94,1.94,0,0,1-.29.31v.06l.2.09L2,38l.82-.13L3.5,38l1.09-.14L5,38l.18-.13a1,1,0,0,1,.32,0h.56l0,.1.34,0c.1,0,.15-.07.16-.09A2,2,0,0,1,7,37.79a.65.65,0,0,1,.26,0,2.29,2.29,0,0,1,.48-.09,1.21,1.21,0,0,1,.38,0,.63.63,0,0,1,.33-.12.78.78,0,0,1,.41,0l.45-.18.21-.28h.81a3.81,3.81,0,0,1,.95-.3h.11a.48.48,0,0,1,.24-.13.28.28,0,0,1,.15,0l.1-.05.1,0V36.5l.44,0a.66.66,0,0,1,.5-.27,1,1,0,0,1,.46-.35l.1-.2,0-.07c0-.13-.49-.35-1.44-.68l-.19-.1a2.35,2.35,0,0,1-.71-.08,1.34,1.34,0,0,1-.28,0h0a2,2,0,0,1-.56-.09L10,34.55a.85.85,0,0,0-.5-.11.88.88,0,0,0-.25.07l-.43,0-.07,0a1.52,1.52,0,0,1-.55-.14L8,34.48l-.69-.25-.42.05-.29-.14-.43,0-.07-.09-.34,0-.33-.3H5.25a1.74,1.74,0,0,1-1-.14l0,0a1.21,1.21,0,0,1-.73-.39L3,33l-.3-.52-.29-.31,0-.88.44-.65c.08,0,.13-.12.16-.29l.16-.11,0,0,1-.71h0a1.49,1.49,0,0,0,.26,0,1.11,1.11,0,0,0,.59-.28H5.3v0L5.49,29l.11,0a3.49,3.49,0,0,1,1.09-.37H7l.3-.23.33-.06h.13l.48-.09a3.36,3.36,0,0,1,.61-.13L9.21,28l.54-.36.31.29.47-.05a1.27,1.27,0,0,1,.41.06L11,28l.14,0a1.52,1.52,0,0,1,.87.12c.77.1,1.18.43,1.24,1s-.3.81-1.06,1l-.2-.23-.24-.06-.24-.06-.47.05-.24-.21-.33.08-.17.23-.54-.3-.54.14-.67-.08a3.11,3.11,0,0,0-1,.37l0,0-.16.1-.06,0L7,30.07l-.56.34-1.07.42-.26,0-.43.35-.21,0-.11.2-.41.35,0,.12a.49.49,0,0,1,.14.11l.12.1.22,0,.36.17.68.16h.32l.61.28.16-.09a2.1,2.1,0,0,1,.86.25l.07.06h0l.34.15L8,33.1l.14-.16.5,0,.09,0,.3,0,.32.2.15,0a1.66,1.66,0,0,1,.64,0l.17,0h0a1.47,1.47,0,0,1,.88.25l.25-.09.2.06.36,0,.66.36h.64l.29.31A3.33,3.33,0,0,1,14.66,34.59Z"/><path class="cls-1" d="M24.47,28.87l.22.49-.24.35-.06.45-.05.12.05.1a.56.56,0,0,1-.1.46l0,.07V31a.72.72,0,0,1,.09.27.36.36,0,0,1,0,.15l0,.08-.06.24.09.25-.15.19.09.29.15.13-.18.19,0,.34-.11.35.14.33-.11.18.23.13-.24.51v.07l.21,0-.09.5v.09a.88.88,0,0,1,0,.23l0,.06h.34l.32.39-.11.33.23,0a1.25,1.25,0,0,1,.19.42l-.28.36a1.14,1.14,0,0,1-.39.34l-.34.23-.11-.1-.2.15L23.34,37l0-.36a2.64,2.64,0,0,1-.21-.76l0-.13-.26-1.23.07-.91-.18-.49-.29.63-.13.57-.16.1-.25.5-.47.54-.12.27-.42.45-.08.29-.63.49-.63.89-.39.13-.26.24a1,1,0,0,1-.84-.32,1.66,1.66,0,0,1-.79-.44,1.53,1.53,0,0,1-.35-.78l.1-.08,0-.12,0-.25L16.75,36l.09-.31V35.2l.07-.71a.2.2,0,0,0,0-.07.22.22,0,0,1,0-.1.6.6,0,0,1,0-.22.35.35,0,0,1,0-.16,1.6,1.6,0,0,1,.07-.5l.14-.08a.32.32,0,0,1-.15-.22.45.45,0,0,1,0-.13.54.54,0,0,1,0-.15.39.39,0,0,1,.21-.4,1.24,1.24,0,0,1,.19-.45l-.12-.16.21-.34v-.09a1.14,1.14,0,0,1,.19-.77l-.06-.38.07-.09v-.06l0-.06a.31.31,0,0,1,.06-.23v-.12a2.48,2.48,0,0,1,.35-.64,5.54,5.54,0,0,0,.47-.84l.12.09.22-.13.1-.05.66-.39,1.64-.1v.15l.52.05a.64.64,0,0,1,.67.25,1,1,0,0,1,0-.17v-.07l.48.36.41,0L24,28l.34.49.33.1Zm-1.81.88-.17,0-.72-.46h-.43l-.34,0,0,0-.17.08-.2-.09-.55.06.08.08-.47.22-.07.12-.06,0a3.16,3.16,0,0,0-.48.59l-.09.52-.06.2.24.28-.33.31.05.08a1.58,1.58,0,0,0-.14.81l-.15.23,0,.38-.15.21,0,.19-.06.05,0,.3-.06.11a1.86,1.86,0,0,1,0,.4l.05.1-.15.43.1.11-.12.23.19.39-.2.32.08.4v.06l.09,0,.1,0a2,2,0,0,1,.19-.21l-.06-.17.29-.07.05-.16,1.14-1.15.12,0,.11-.38.06,0,.28-.18.09-.35.17,0-.1-.35.29-.07a.78.78,0,0,1,.12-.21.89.89,0,0,1,.17-.27l.92-1.56.13-.33,0-.09.12-.25,0-.23.17-.19v-.24Z"/><path class="cls-1" d="M36.72,26.36l.11.4-.3.22,0,.45-.18.17v.47h-.06a.65.65,0,0,1-.31.51l-.12.69-.16.32a1.08,1.08,0,0,1,.05.27l-.3.33L35,31.38l-.33.7,0,.21a.61.61,0,0,1-.29.54v.39l-.14.1-.21.36,0,.24-.14.12a1.6,1.6,0,0,0,.08.27l-.22.22-.35.27-.11.23-.37.49c-.35.81-.77,1.24-1.25,1.29a1.33,1.33,0,0,1-1.1-.48l.08.14-.86-1-.07-.24-.13-.08-.08-.5-.26-.21-.05-.53-.69-1.16,0-.22-.2-.28L28.29,32l-.12-.14L28,31.53l-.41-.26-.25-.68L27,30.37l-.2-.26a.79.79,0,0,1-.62-.8.81.81,0,0,1,.15-.58,2.12,2.12,0,0,1,.66-.47,3,3,0,0,1,1.54,1.41l.12.48a1.73,1.73,0,0,1,.28-.12l0,.19.37.22-.09.35.07.25.24.49.12.09,0,.19.18.07,0,.35.32.8.08.32.41.63.37.8.23.19h0c.06,0,.1-.06.13-.16v0l.16-.08-.08-.17a.18.18,0,0,1,.14-.14.3.3,0,0,1,.17,0c.07-.3.13-.44.17-.45s0,0,0,.06a.93.93,0,0,1,.36-.46l.23-.44.12-.44.2-.19.09-.29.08-.07-.07-.27.22-.13,0-.11a.54.54,0,0,1,.08-.25l.11-.39.12.11.08-.05V31a.58.58,0,0,1,.18-.49v0l.12-.3,0-.47.14-.06.21-.68.16-.28a.79.79,0,0,1,.24-.52l.13-.61.13-.21,0-.44h.1a1.73,1.73,0,0,0,.4-.66.71.71,0,0,1,.18-.34l.1-.08.55-.42.53.58Z"/><path class="cls-1" d="M45,33.27a1,1,0,0,1-.31.67,1.45,1.45,0,0,1-.26.59l-.13,0-.18.43-.38.11-.37.29-.17.41-.24,0a1.62,1.62,0,0,1-.37.17l-.1.2h-.19c-.17,0-.34.16-.49.44l-.32-.22-.25.05a1.2,1.2,0,0,1-.48,0l-.36,0-.18-.09a1.2,1.2,0,0,1-1.08-.5v-.06l-.26-.1-.17-.35-.27-.14,0-.31L38,34l0-.76,0-.35,0-.44.07-.35,0-.15.12-.27,0,.05a1,1,0,0,1,.06-.41v-.11l-.12-.5a.86.86,0,0,1,.25-.67.45.45,0,0,0,0-.13s0-.05,0-.12-.1-.26-.12-.33a1.42,1.42,0,0,1-.07-.25,1.3,1.3,0,0,1,.07-.54.55.55,0,0,0,.51.2h.07a.48.48,0,0,1,.15-.19l0,0a2.47,2.47,0,0,1,.37-.94l.07-.09a2.61,2.61,0,0,1,.07-.5l.17,0,0-.11.16-.06a.69.69,0,0,1,.13-.21.54.54,0,0,1,.27-.24l.14-.08a1,1,0,0,1,.22-.3L40.7,26l.07-.14.1,0a2.83,2.83,0,0,1,.59-.21.53.53,0,0,1,.33.05l.1,0,.16.07a2.66,2.66,0,0,0,.54.26l.39.24v.08a1.34,1.34,0,0,1,.61,1l-.05.22.14.69-.17.14-.15.58-.36.48,0,.35a11.24,11.24,0,0,1-1.14.91h0a.68.68,0,0,1-.56.36h-.07l-.37.3-.34,0-.48.27-.4-.15h0a3.13,3.13,0,0,0,0,.51l-.16.15v.25l-.09.38a.9.9,0,0,0,0,.12,3.55,3.55,0,0,1,.1.52l-.07.08a3.63,3.63,0,0,1,0,.4v.06a.12.12,0,0,0,0,.07.33.33,0,0,0,.2.26c.06.16.14.26.25.29l.16.11.48.08v.06l.18,0,.72,0,.42-.11.19-.17.12-.06.18-.34.1,0,.51-.23a.73.73,0,0,1,.25-.28l0-.11a.56.56,0,0,0,.44-.5,1.07,1.07,0,0,1,.73-.38h.08A1.34,1.34,0,0,1,45,33.27Zm-2.85-6.11H42l0,0h-.08l-.08,0h-.13l-.2.17-.19.05-.1.05-.31.5-.21.2-.27.63-.18.14a1.14,1.14,0,0,1-.23.65l-.07.16a1,1,0,0,1,.52-.21l.14-.08,0-.2h.3l.14-.27h.13l.24.06.07-.33.15,0,0-.23.27-.09.06-.07,0-.2.23-.43a.73.73,0,0,0,0-.26A.83.83,0,0,0,42.11,27.16Z"/><path class="cls-1" d="M60.1,33.35l-.84.26-.65,0h-.3l.09-.12-.36.21a3.3,3.3,0,0,0-.47,0,.56.56,0,0,1-.13-.26l-.33.35h-.43a.78.78,0,0,0-.21,0l-.19,0a4.28,4.28,0,0,1-.55,0l-.54.14,0-.1-.23.07-.36.06-.4.26-.12-.1a.85.85,0,0,1-.35.11h-.15l-.07-.08a.63.63,0,0,1-.29.1.91.91,0,0,1-.32,0l-.14.08-.06,0c-.45,0-.75,0-.88-.25a2.35,2.35,0,0,1-.4-.11l0-.35a.55.55,0,0,1-.11-.25.49.49,0,0,1,.07-.3.48.48,0,0,1,.2-.18l.51-.18.08,0a.69.69,0,0,1,.19,0,.54.54,0,0,1,.4.1l0,0,.16-.11.37-.08.41-.17.64,0c.29,0,.55.09.78.11l0-.07-.25-.34v-.32a.9.9,0,0,1-.09-.26.31.31,0,0,1,.06-.23,2.91,2.91,0,0,1-.15-.6.57.57,0,0,1,.18-.47l-.08-.4a.15.15,0,0,0,0-.11s0-.06-.1-.09l-.09-.06-.16-.69.06,0,.14-.34-.19-.39.22-.3,0-.45v-.11a.88.88,0,0,1,0-.43.42.42,0,0,1-.08-.21.35.35,0,0,1,0-.06.45.45,0,0,0,0-.11l-.08.06-.31.11-.42.22h-.09a.86.86,0,0,1-.51.23h-.1a1.7,1.7,0,0,0-.17.23,2.83,2.83,0,0,1-.19.24l-.38-.15-.2.06a1.74,1.74,0,0,0-.72.5,1,1,0,0,0-.59-.27l-.65-.15L50,27c.15-.4.35-.61.59-.64a1.4,1.4,0,0,1,.43,0l.28.18a.7.7,0,0,1,.42-.24,1.94,1.94,0,0,1,1-.4h.11a.77.77,0,0,0,.4-.22,1.07,1.07,0,0,1,.26-.2l-.11-.05.66-.22.09-.16-.07-.06-.17-.13.65-.39.25,0,.09.1a.15.15,0,0,1,.12.07,1,1,0,0,1-.08-.35.8.8,0,0,1,.19-.62l.76-.28.82-.09c.44.33.67.59.69.8a.49.49,0,0,1-.19.43L56.7,25v.06a.23.23,0,0,0,0,.07l0,.06s0,.05,0,.06l-.08.06-.16,0,.11.61-.12.1a.81.81,0,0,0,0,.11l0,.09-.06.07s0,0,0,.06a.27.27,0,0,0,.1.18,2.8,2.8,0,0,0-.16.85.91.91,0,0,1-.08.46l.1.14-.18.47.07.27-.06.46.11.16-.09.37a1.14,1.14,0,0,1,.1.37.38.38,0,0,1,0,.15l.05.1.15.37-.22.13v.05a.71.71,0,0,1,.08.33,1.06,1.06,0,0,1,0,.36l.25.12a3,3,0,0,0-.11.4L56.41,32l.07.4.1-.2.37.06.61-.17,0,.1.88-.35-.12.46.23,0a1.27,1.27,0,0,1,.5.05h.06a4.21,4.21,0,0,1,.75-.18,3.05,3.05,0,0,1,.75,0l.12-.14c.39.13.61.33.64.59a.61.61,0,0,1-.37.58Z"/><path class="cls-1" d="M71.73,27.4l.19.2-.39.51-.19.66-.36.38-.1.27-.19.19-.16.3-.21.08,0,.19-.42.2-.23.3-.32.19-.16.29-.23,0-.41.15-.31.35-.65.31-.43.32-.38.11-.26.18-.5.12-.14,0-.21.26L65,33l-.16.08-.36,0-.21.06L63.91,33l-.21,0a.89.89,0,0,1-.63-.27,1.09,1.09,0,0,1-.55-.35l-.09-.11-.28-.21-.37-.67,0-.15-.14-.13.07-.52a1,1,0,0,1-.1-.31.5.5,0,0,1,.11-.4l0-.13a1.58,1.58,0,0,0-.06-.37l.23-.65,0-.51.18-.3.08-.5.12-.4a1.74,1.74,0,0,1,.31-.89l.15-.19,0-.08.18-.36,0-.46.38-.18.15-.27c.16,0,.23-.17.21-.38l.49-.61.11,0,.06-.39.34,0,0-.2h.13l0-.23.21,0c.28,0,.42-.11.44-.26l.82-.32.46-.25.19,0,.44-.13.13.05a1.16,1.16,0,0,1,.31-.12h.08a1.06,1.06,0,0,1,.75.54l.29.14.32.22.37.07.43.57.36.18.19.32s.08.08.18.11a1,1,0,0,1,.43.78l.33.29-.07.18.07.05c.2.82.32,1.32.34,1.51a.7.7,0,0,1-.07.37l.17.17Zm-1.48-1.21V25.9L70,25.54v-.3l-.15-.13-.07-.3-.16-.26A1.17,1.17,0,0,1,69,24l-.13-.05-.26-.14-.46,0-.39-.39-.07-.05-.37.08h-.13L67,23.6l-.29.1-.11.18-.54.36-.36.19-.32.29-.39.51-.27.22-.17.45-.42.49.08.27-.37.38,0,.3-.29.24a1.11,1.11,0,0,1-.33.92c0,.05.06.08.06.1a.31.31,0,0,1-.11.22l0,.17-.08.24.09.38-.22.17.25.13-.14.27.17.23-.14.26,0,.08,0,.24a1.26,1.26,0,0,1,.3.41.67.67,0,0,0,.38.33l.25-.07.06,0h0a.66.66,0,0,1,.42.13l.4-.11h.08l.08-.07.59-.09L66,31.4l.27-.26h.17l.18-.34.34,0,.15-.19.24,0a1.61,1.61,0,0,1,.23-.22,1.18,1.18,0,0,0,.39-.19.68.68,0,0,1,.17-.23l0-.22a1.76,1.76,0,0,0,.47-.09.36.36,0,0,0,.19-.21l.49-.38a.57.57,0,0,1,.3-.33.44.44,0,0,0,.2-.4.56.56,0,0,0-.05-.19l.35-.19a2.72,2.72,0,0,1,.12-.25.28.28,0,0,1,0-.12,1.36,1.36,0,0,1,.19-.62l-.08-.23,0-.43Z"/><path class="cls-1" d="M84.69,17.42a1.62,1.62,0,0,0-.13.55l-.49.2-.56.55-.52.4-.21.39a1.2,1.2,0,0,1-.41.6l-.09.54-.23,0,0,.11-.14.12,0,.13-.28.44v.1a.64.64,0,0,1-.18.49l-.19.24.11.22L81,22.8,81,23l-.33.51,0,.23-.58.77v.28l-.38.68-.2.73-.36.74-.06.12L79,27l.09.4-.23.26V28a6.5,6.5,0,0,0-.45,1.42l-.1.07,0,.19-.29,1,0,.34-.24.3,0,.19-.33.93,0,.36-.12.23,0,.15-.07.16.07.21a2.21,2.21,0,0,0-.08.5,1.11,1.11,0,0,1,.24.57l-.06.26.09.25-.07.09.33.54v.2a3.07,3.07,0,0,1,.22.38l.34.22.13.2.6.17.1,0,.32.17.06,0v-.07l.07,0,.18-.11a1,1,0,0,0,.5.07h.15a1,1,0,0,1,.21,0,.31.31,0,0,0,.15,0,.58.58,0,0,0,.32-.16l.66-.21a.63.63,0,0,0,.27.1v.11l.58.21,0,.35-.61.47-.69.08-.15.06-.48.09a3.47,3.47,0,0,1-.87.25L78.53,38,78,37.81l-.65-.23-.1-.33-.42-.32-.06-.2-.21-.13-.23-.53-.19-.21-.06-.92L76,34.49l.06-.18-.1-.12,0-.09A9.06,9.06,0,0,1,76,32.83a1.39,1.39,0,0,0,.17-.83.89.89,0,0,1,.09-.35c.06-.18.11-.33.14-.46l.38-1.05a.54.54,0,0,1,0-.08.23.23,0,0,1,0-.09,1.07,1.07,0,0,1,.09-.52H77c.08,0,.11-.11.09-.31s0-.28-.06-.4l.2-.27-.06-.15.34-.65.19-.56.08-.05.31-.74.25-.8a1.33,1.33,0,0,1,.29-.29s.06,0,.06-.07v0l.13-.74.14-.25V23.9l.39-.51.13-.74.13-.17.1-.07c.09,0,.16-.18.24-.43a3.21,3.21,0,0,1,.46-1l-.05,0,.21-.62-.06,0,0-.08-.32-.14-.18.08a.81.81,0,0,1-.47.25h-.23a2,2,0,0,1-.62.17l-.5,0,.37.22,0,.24a1,1,0,0,1,.2.43.86.86,0,0,1,0,.17.73.73,0,0,1,.13.35,3.65,3.65,0,0,1-.14,1.1l-.43.39-.27.46-.18.08-.11.36-.7.27-.19.25-2,.39-.57-.11-.76-.45-.22-.28-.45-.38,0-.37a2.36,2.36,0,0,1-.17-.53,4.19,4.19,0,0,1,.18-.58l0-.07,0-.31H73c.09,0,.13,0,.12-.08s0-.08-.14-.15a2.75,2.75,0,0,0,.08-.52V21.1c0-.13,0-.25,0-.36h0l0,0,.06,0,.06,0,0,0a1.83,1.83,0,0,0,.36-.4l.12-.23.07-.15a1,1,0,0,1,.24-.37l.06-.07a1.18,1.18,0,0,1,.45-.72,1.27,1.27,0,0,1,.56-.2,3.81,3.81,0,0,1,1.27.3,1.59,1.59,0,0,1,.25.09c.09.17.15.31.19.4v0l.26-.16.69.06.74-.08.47.07.52-.16.48-.12a3.15,3.15,0,0,1,.89-.46.06.06,0,0,0,0,.06s.09-.11.14-.31l.45,0,.12-.05.14-.1a1.15,1.15,0,0,1,.19-.26l-.1-.09a2.05,2.05,0,0,1,.47-.44,3.78,3.78,0,0,0,.81-.75.58.58,0,0,1,.23-.27.72.72,0,0,1,.33-.09,1.22,1.22,0,0,1,.66.16l.49.59ZM77.27,21.3l-.13.19a1.21,1.21,0,0,0-.34-.35c-.08-.22-.17-.34-.28-.37a1.14,1.14,0,0,1-.55-.18,3.32,3.32,0,0,1-.56.13.92.92,0,0,1-.37,0,.92.92,0,0,0,0,.28l-.25.13-.11.29v.37l-.21.36-.12.27.12.16-.21.45.07.2,0,.26a2.3,2.3,0,0,0,.26.43.34.34,0,0,0,.31.09H75l.75-.1.33,0a.65.65,0,0,0,.17-.17,2.1,2.1,0,0,1,.37-.4l.36,0c0-.06.09-.17.18-.32l0-.14a.74.74,0,0,0,.25-.53l0-.15V22l0-.31Zm8.64,6a.52.52,0,0,1,.07.27.93.93,0,0,1,0,.45,1.3,1.3,0,0,1,.1.36.73.73,0,0,1-.11.35v0a1.53,1.53,0,0,1-.38,1l-.14.33c-.13.06-.21.12-.23.2a.81.81,0,0,1-.48.54l-.13.16-.42.29-.41.36a1.19,1.19,0,0,1-.65.31l-.15,0-.41.15h-.83l-1-.48-.36-.88,0-.46-.14-.37.06-.18-.07-.25c0-.17.09-.37.15-.59a6.75,6.75,0,0,0,.19-1l.22-.13v0a.66.66,0,0,1,0-.11.77.77,0,0,1,0-.1v0c0-.07.06-.24.14-.52l0-.09a2,2,0,0,1,.57-.92l0-.46L82,25.3l.42-.3.65-.08.57.11.66,0,.19.35h.15a1.21,1.21,0,0,1,.61.49l.6.81Zm-1.51-.33-.22-.25-.27-.1-.14-.14-.29.08-.26-.06,0,.35a.68.68,0,0,1-.55-.13l-.05.49-.14.13v.25l-.42.5,0,.45-.15.15a2.94,2.94,0,0,1-.1.63v.1a1,1,0,0,1,0,.33c.1.67.29,1,.56,1.05l.06,0a1.41,1.41,0,0,0,.31-.1,2.08,2.08,0,0,1,.45-.22h0l.18-.15.74-.66a.75.75,0,0,1,.24-.37q.18-.07.18-.12v0l0,0a1.28,1.28,0,0,0,.12-.29l.07-.76,0-.17,0-.36Z"/><path class="cls-2" d="M88.23,30.31l11.44-4.56a15.91,15.91,0,0,0,4.53-2.41c3.24-2.76,3.72-7.52,4-11.78.14-2.44.28-4.89.41-7.33"/><polygon class="cls-1" points="112.83 13.35 111.39 13.78 108.55 4.38 104.69 13.41 103.31 12.82 108.8 0 112.83 13.35"/></g></g></svg>