<svg xmlns="http://www.w3.org/2000/svg" viewBox="0 0 125.57 29.73"><defs><style>.cls-1{fill:#010101;}.cls-2{fill:none;stroke:#010101;stroke-miterlimit:10;stroke-width:1.5px;}</style></defs><g id="Layer_2" data-name="Layer 2"><g id="Layer_1_1980" data-name="Layer 1 1980"><path class="cls-1" d="M54.21,18.4a1.63,1.63,0,0,1,.32.91,1.28,1.28,0,0,0,0,.13s0,.09,0,.15a1.22,1.22,0,0,1-.23.68,2.56,2.56,0,0,1-.72.75.61.61,0,0,1-.34.2,1.55,1.55,0,0,1-.71.36,1.41,1.41,0,0,1-.48.33l-.38,0-.35.36-.41,0-.12,0-.32.08h-.06l-.46.09h-.15l-.17,0-.28.14L49,22.7l-.49,0-.22.13.07.06a2.75,2.75,0,0,0-.75.16h-.11l-.81,0h-.06l-1.23.09-.41,0a1.14,1.14,0,0,1-.44.13,1.24,1.24,0,0,1-.63-.12l-.39.19-.23-.17a2.17,2.17,0,0,1-1.05-.05l-.09,0H42a.63.63,0,0,1-.25.07l-.88-.46-.39,0a1.65,1.65,0,0,1-1-1.2,2.82,2.82,0,0,1,.12-.85l.37-.51.51,0a.59.59,0,0,1,.46-.29c.45-.05.72.29.79,1a2.92,2.92,0,0,0-.51.22,1.28,1.28,0,0,1-.28.31v.07l.21.08.28.25.82-.13.72.13,1.1-.14.42.21.18-.12a1.32,1.32,0,0,1,.33,0h.55l.06.1.34,0,.16-.08a2.07,2.07,0,0,1,.37-.13.92.92,0,0,1,.26,0,3,3,0,0,1,.48-.1,1.67,1.67,0,0,1,.39,0,.7.7,0,0,1,.32-.13,1,1,0,0,1,.41,0l.46-.17.2-.28h.81a3.43,3.43,0,0,1,.95-.3h.11a.51.51,0,0,1,.24-.14.44.44,0,0,1,.15,0l.11,0,.1-.06,0-.17.44,0a.7.7,0,0,1,.51-.27,1,1,0,0,1,.45-.35,2,2,0,0,0,.11-.21l0-.06c0-.13-.49-.36-1.44-.68l-.18-.11a2.81,2.81,0,0,1-.72-.07h-.31a2.06,2.06,0,0,1-.57-.09l-.29-.07a.76.76,0,0,0-.5-.12l-.25.07-.42.05-.07-.06a1.48,1.48,0,0,1-.55-.13l-.25.11L46.82,18l-.42,0-.29-.14-.42,0-.08-.1-.34,0-.33-.31-.15,0a1.76,1.76,0,0,1-1-.15l0,0a1.21,1.21,0,0,1-.72-.4l-.4-.29-.29-.53L42,15.93v-.88l.44-.64c.08,0,.14-.13.16-.3l.16-.1,0,0,1-.71h0a1.23,1.23,0,0,0,.26,0,1.09,1.09,0,0,0,.58-.27l.13,0v0l.19-.21h.1a3.51,3.51,0,0,1,1.1-.38h.29l.3-.22a1.77,1.77,0,0,1,.34-.06h.12l.48-.1c.28-.07.48-.11.61-.13l.38-.06.53-.36a2.48,2.48,0,0,1,.31.29l.47,0a1.27,1.27,0,0,1,.41.06h.22a1.55,1.55,0,0,1,.87.12c.76.1,1.17.43,1.24,1s-.31.81-1.07,1l-.2-.24-.24-.06-.24-.06-.47.05-.23-.21-.34.08-.16.24-.55-.31-.54.15-.67-.08a3,3,0,0,0-1,.37l0,0-.16.1-.06,0-.31-.09-.56.34-1.07.41-.26,0-.43.34L44,15l-.11.2-.41.34.06.13a.68.68,0,0,1,.14.11l.11.09.22,0,.36.18.68.16h.32l.61.27.16-.08a2,2,0,0,1,.86.25l.07.06h0l.33.16.12.05.13-.17.51,0,.09,0,.29,0,.32.2h.15a1.73,1.73,0,0,1,.65,0,.47.47,0,0,0,.16,0h0a1.49,1.49,0,0,1,.88.24L51,17l.2.07.36,0,.66.35h.64l.29.31A3.07,3.07,0,0,1,54.21,18.4Z"/><path class="cls-1" d="M64,12.68l.22.49-.24.34-.05.46-.06.11.06.1a.65.65,0,0,1-.1.46l0,.07v.09a.58.58,0,0,1,.09.26.36.36,0,0,1,0,.15l0,.09-.06.24.09.24-.15.19.1.29.14.13-.17.19,0,.34-.11.36.15.32-.11.19.23.12-.25.52v.06l.21,0-.09.51v.08a1,1,0,0,1,0,.24l0,.06h.34l.32.39-.11.34.23-.05a1.47,1.47,0,0,1,.2.43l-.29.35a1,1,0,0,1-.39.34l-.33.23-.12-.09-.2.15-.74-.69,0-.36a3.07,3.07,0,0,1-.21-.77v-.13l-.26-1.23.07-.9-.18-.5-.3.63-.13.57-.16.11-.24.49-.48.55-.12.27L60.4,20l-.08.28-.63.5-.63.88-.39.13-.25.24a1,1,0,0,1-.85-.31,1.8,1.8,0,0,1-.79-.44,1.75,1.75,0,0,1-.35-.79l.1-.07,0-.13,0-.25-.16-.26.1-.31V19l.07-.71v-.06a.76.76,0,0,1,0-.11.9.9,0,0,1,0-.21.41.41,0,0,1,0-.17,1.74,1.74,0,0,1,.08-.5l.14-.08a.29.29,0,0,1-.16-.22.49.49,0,0,1,0-.13.47.47,0,0,1,0-.14.43.43,0,0,1,.22-.41,1.36,1.36,0,0,1,.18-.45l-.12-.15.22-.35v-.08a1.19,1.19,0,0,1,.19-.77L57,14.08l.08-.09a.15.15,0,0,1,0-.07l0-.06a.29.29,0,0,1,.06-.22v-.13a2.28,2.28,0,0,1,.36-.63A5,5,0,0,0,58,12l.12.1.22-.13.1-.06.66-.39,1.64-.09,0,.15.51.05a.62.62,0,0,1,.67.24,1.16,1.16,0,0,1,0-.17.18.18,0,0,1,0-.06l.49.35.41,0,.74-.27.33.5.33.09Zm-1.81.88-.17,0-.71-.46-.43,0-.34,0,0,0-.16.08-.2-.08-.55.06.07.07-.47.23-.07.11-.06,0a2.76,2.76,0,0,0-.47.59l-.1.52-.06.2.24.27-.33.31.06.09a1.48,1.48,0,0,0-.15.8l-.15.23,0,.38-.15.21,0,.2,0,0,0,.3-.05.11a1.84,1.84,0,0,1,0,.41l.05.1-.14.42.09.12-.12.23.19.38-.2.32.09.4v.06l.09,0,.11,0,.19-.21-.06-.16.29-.08,0-.15,1.14-1.15.12-.06.11-.37L60,18a2.32,2.32,0,0,0,.28-.18l.09-.35.17,0-.1-.35.29-.08a.63.63,0,0,1,.13-.21,1.2,1.2,0,0,1,.16-.27L61.89,15l.14-.34,0-.08.13-.25v-.24l.18-.19V13.7Z"/><path class="cls-1" d="M76.26,10.17l.11.39-.3.23,0,.45-.18.17v.47h-.06a.62.62,0,0,1-.31.5l-.12.7-.15.31a2.33,2.33,0,0,1,.05.28L75,14l-.36,1.17-.33.7,0,.21a.62.62,0,0,1-.28.55V17l-.14.1-.22.37,0,.24-.13.12a1,1,0,0,0,.07.27l-.21.22-.36.27-.1.22-.38.49c-.35.81-.77,1.24-1.25,1.29a1.29,1.29,0,0,1-1.1-.48l.08.15-.85-1L69.3,19,69.16,19l-.07-.51-.26-.2-.06-.53-.68-1.17,0-.21-.2-.28-.07-.23-.13-.13-.18-.37-.42-.25-.24-.68-.33-.22-.19-.26q-.55-.11-.63-.81a.8.8,0,0,1,.15-.57,2.08,2.08,0,0,1,.66-.48,3.08,3.08,0,0,1,1.54,1.42l.12.48a.92.92,0,0,1,.29-.12l0,.19.36.22-.09.35.07.25.25.48.11.1,0,.18.17.07,0,.36.32.8.08.31.41.64.37.79.23.19h0c.06,0,.11-.06.14-.17v0l.17-.08-.09-.16c0-.09.08-.14.14-.14a.25.25,0,0,1,.18,0c.06-.29.12-.44.16-.44s0,0,0,.06a.88.88,0,0,1,.35-.47l.23-.43.13-.44.19-.19.1-.29L72.7,16l-.07-.27.22-.13,0-.11a.72.72,0,0,1,.08-.24l.11-.4.12.12.08,0v-.07a.57.57,0,0,1,.19-.49v0l.12-.29,0-.48.15,0,.2-.69.16-.27a.74.74,0,0,1,.25-.52l.12-.61.13-.21-.05-.44.11,0a1.69,1.69,0,0,0,.39-.66,1,1,0,0,1,.18-.34l.1-.07.55-.43.54.58Z"/><path class="cls-1" d="M84.5,17.07a1.07,1.07,0,0,1-.31.68,1.29,1.29,0,0,1-.26.58l-.12,0-.19.43-.37.1-.38.3-.17.4-.24,0a1.13,1.13,0,0,1-.36.17L82,20a.59.59,0,0,0-.19,0c-.17,0-.33.16-.49.43L81,20.17a1.09,1.09,0,0,1-.25,0,1.23,1.23,0,0,1-.48,0l-.36,0-.18-.09a1.22,1.22,0,0,1-1.08-.5v-.07l-.27-.1-.17-.34L77.93,19l0-.32-.36-.9,0-.77,0-.34,0-.45.07-.35,0-.14.12-.27,0,0a.91.91,0,0,1,.07-.41l0-.11-.11-.5a.8.8,0,0,1,.24-.66.18.18,0,0,0,0-.13.66.66,0,0,0,0-.13q-.09-.23-.12-.33a1,1,0,0,1-.08-.25,1.54,1.54,0,0,1,.07-.54.55.55,0,0,0,.52.2h.06a.42.42,0,0,1,.15-.19l0,0a2.76,2.76,0,0,1,.37-.94l.07-.1a3.28,3.28,0,0,1,.08-.5h.17l0-.11.16-.07a.59.59,0,0,1,.13-.2.65.65,0,0,1,.27-.24l.14-.08A.92.92,0,0,1,80,9.86a1.23,1.23,0,0,1,.2-.1l.07-.14.1,0a2.38,2.38,0,0,1,.6-.22.7.7,0,0,1,.32.05l.11,0,.15.07a3.87,3.87,0,0,0,.55.26l.39.23V10a1.28,1.28,0,0,1,.61,1l0,.22.14.69-.18.15-.15.57-.35.49v.34a11.51,11.51,0,0,1-1.14.92h0a.66.66,0,0,1-.56.36h-.06l-.38.3-.34,0-.48.27-.4-.15h0a3.36,3.36,0,0,0,0,.52L79,15.9v.26l-.09.37a1.28,1.28,0,0,0,0,.13,5.12,5.12,0,0,1,.1.52l-.08.07a2.25,2.25,0,0,1,0,.41v.06a.25.25,0,0,0,0,.07.33.33,0,0,0,.2.25.46.46,0,0,0,.25.3l.16.11.48.07v.07l.17,0,.72,0,.42-.11.19-.17.13-.05.17-.34.11,0,.51-.23a.65.65,0,0,1,.24-.29l.06-.11a.53.53,0,0,0,.43-.49,1,1,0,0,1,.73-.38H84A1.33,1.33,0,0,1,84.5,17.07ZM81.65,11h-.1l0,0h-.09l-.08,0-.07,0h-.06l-.19.17-.19,0-.1,0-.31.51L80.2,12l-.27.63-.18.15a1.17,1.17,0,0,1-.22.64l-.07.16a1,1,0,0,1,.51-.2l.14-.08,0-.2h.3l.14-.27.13,0,.24.06.07-.33h.15l0-.24.27-.09.06-.07,0-.19.23-.43a.72.72,0,0,0,0-.26A1.12,1.12,0,0,0,81.65,11Z"/><path class="cls-1" d="M99.65,17.16l-.85.26-.65-.06h-.3l.1-.12-.37.22h-.47a.55.55,0,0,1-.13-.26l-.33.36h-.42a.8.8,0,0,0-.21.05l-.19,0a4.77,4.77,0,0,1-.56,0l-.54.15,0-.1-.23.06-.36.06-.39.26L93.58,18a.9.9,0,0,1-.35.1l-.15,0L93,18a.88.88,0,0,1-.29.09,1,1,0,0,1-.33,0l-.14.07-.06,0c-.45.05-.74,0-.88-.24l-.4-.11,0-.36a.75.75,0,0,1-.11-.24.48.48,0,0,1,.07-.3.41.41,0,0,1,.2-.18l.51-.19.09,0a.6.6,0,0,1,.18,0,.54.54,0,0,1,.4.11.05.05,0,0,1,0,0l.16-.1.38-.08.4-.18.64,0a6.41,6.41,0,0,0,.78.1l0-.06-.25-.34v-.32a.83.83,0,0,1-.1-.27.29.29,0,0,1,.06-.22,2.91,2.91,0,0,1-.15-.6.57.57,0,0,1,.19-.47l-.09-.4s.06-.08.05-.11,0-.06-.09-.1l-.09-.05L94,12.66l.06,0,.13-.33L94,11.91l.22-.3,0-.46v-.1a.77.77,0,0,1,.06-.43.48.48,0,0,1-.09-.21.18.18,0,0,0,0-.06.22.22,0,0,0,0-.11l-.08,0a1.31,1.31,0,0,1-.3.12l-.43.22h-.08a.9.9,0,0,1-.51.22h-.11l-.17.24a1.12,1.12,0,0,1-.18.23L92,11.19l-.21.06a1.85,1.85,0,0,0-.72.51.93.93,0,0,0-.58-.28l-.66-.14-.29-.5c.16-.4.35-.62.59-.64a1.41,1.41,0,0,1,.44,0l.27.19a.7.7,0,0,1,.43-.24c.09-.14.42-.27,1-.41h.1a.73.73,0,0,0,.41-.21.7.7,0,0,1,.25-.2l-.11-.06.66-.22.09-.16-.07-.05-.16-.13.64-.4.25,0,.1.09a.14.14,0,0,1,.11.08,1.21,1.21,0,0,1-.08-.36.85.85,0,0,1,.19-.62l.76-.27.83-.09c.43.32.66.59.68.8a.48.48,0,0,1-.19.43l-.48.48v.06a.25.25,0,0,0,0,.07l0,.06a.35.35,0,0,0,0,.06l-.08.05-.15,0,.1.6-.11.1,0,.11C96,10,96,10,96,10l0,.07a.08.08,0,0,0,0,.07.29.29,0,0,0,.11.18,2.71,2.71,0,0,0-.17.85,1.11,1.11,0,0,1-.07.46l.1.14-.19.47.07.27,0,.45.1.16-.09.37a1.59,1.59,0,0,1,.11.38.76.76,0,0,1,0,.15l.06.1.14.37-.22.13v0a1,1,0,0,1,.07.33,1.13,1.13,0,0,1,0,.37l.25.12a3.93,3.93,0,0,0-.11.4l0-.06.07.4.11-.21.37.07.6-.17,0,.1.88-.35-.12.46.23,0a1.49,1.49,0,0,1,.5.06h.06a5,5,0,0,1,.75-.19,3.26,3.26,0,0,1,.76.05l.11-.14c.4.12.61.32.64.59a.59.59,0,0,1-.37.57Z"/><path class="cls-1" d="M111.27,11.21l.19.19-.39.51-.18.67-.37.38-.1.26-.19.2-.16.29-.21.09,0,.19-.43.19-.22.31-.33.18-.16.3-.23,0a3.39,3.39,0,0,1-.41.15l-.3.36-.66.3-.43.33-.37.1-.26.18-.5.12-.15,0-.2.26-.69,0-.17.09-.36,0-.21.07-.35-.11-.21,0a.86.86,0,0,1-.63-.27,1,1,0,0,1-.55-.35l-.1-.12-.28-.2-.37-.67,0-.15-.14-.14.07-.52a.91.91,0,0,1-.09-.31.49.49,0,0,1,.1-.39v-.13a2.62,2.62,0,0,0-.07-.38l.23-.64,0-.52.19-.3.07-.5.13-.4a1.62,1.62,0,0,1,.31-.88l.15-.19-.06-.08.18-.36,0-.47.39-.17.14-.27a.31.31,0,0,0,.21-.39l.49-.61.11,0,.07-.39.34,0,0-.19h.12l0-.24.21,0c.28,0,.43-.12.44-.26l.82-.33.47-.24.19,0,.43-.13.14,0a.79.79,0,0,1,.3-.12h.09a1.07,1.07,0,0,1,.74.54l.29.14.33.22.37.06.42.58.36.17.19.32s.08.08.18.11a1,1,0,0,1,.43.79l.33.28-.07.18L111,9c.21.82.32,1.32.34,1.5a.68.68,0,0,1-.07.37l.17.18ZM109.79,10V9.7l-.25-.36V9l-.14-.13-.08-.29-.15-.26a1.16,1.16,0,0,1-.67-.59l-.13,0-.25-.15-.47,0-.38-.38-.07-.06a2.42,2.42,0,0,1-.38.09h-.13l-.17.15-.29.09-.11.18-.54.36-.36.19-.31.29-.4.52-.27.22-.17.44-.41.5.07.27-.37.38.06.29-.3.25a1.06,1.06,0,0,1-.32.91l0,.1a.31.31,0,0,1-.1.23l0,.17-.08.24.08.37-.22.18.25.12-.14.27.18.24-.15.25,0,.08,0,.24a1.72,1.72,0,0,1,.31.42.64.64,0,0,0,.37.32l.25-.07a.09.09,0,0,0,.06,0h0a.68.68,0,0,1,.42.12l.39-.1h.09l.07-.07.59-.09.27-.09.27-.27H106l.18-.35.34,0,.16-.19.24,0a1.21,1.21,0,0,1,.23-.22.91.91,0,0,0,.38-.19,1,1,0,0,1,.17-.23l0-.21a1.76,1.76,0,0,0,.46-.09.33.33,0,0,0,.19-.22l.49-.37a.59.59,0,0,1,.31-.33.45.45,0,0,0,.19-.41.69.69,0,0,0,0-.19l.34-.18c0-.08.08-.16.12-.25a.35.35,0,0,1,0-.13,1.3,1.3,0,0,1,.19-.62l-.09-.22.06-.44Z"/><path class="cls-1" d="M124.23,1.22a1.67,1.67,0,0,0-.13.55l-.49.2-.56.56-.51.39-.22.39a1.1,1.1,0,0,1-.4.6l-.09.55-.24,0,0,.11-.13.12,0,.14-.28.43,0,.11a.71.71,0,0,1-.19.49l-.18.23.11.22-.34.28,0,.21-.33.5,0,.24-.58.76V8.6l-.37.69-.2.72-.37.75,0,.11-.1-.07.09.39-.23.26v.3a6.42,6.42,0,0,0-.44,1.42l-.1.08,0,.19-.3,1,0,.33-.25.31,0,.19-.32.93,0,.36-.12.23,0,.15-.06.15.06.21a2.18,2.18,0,0,0-.07.5,1.1,1.1,0,0,1,.23.57l-.06.27.1.24-.08.1.34.54v.19c.08.13.15.26.21.38l.34.22.13.2.6.17.1,0,.32.18.06,0,0-.06h.06l.18-.1a1.14,1.14,0,0,0,.5.07l.15,0,.21,0a.36.36,0,0,0,.15,0,.45.45,0,0,0,.32-.16l.67-.2a.72.72,0,0,0,.26.1v.1l.58.22,0,.35-.61.47-.7.07-.14.06-.49.1a3.4,3.4,0,0,1-.87.24l-1.39-.17-.49-.22-.64-.23-.11-.33-.41-.32-.07-.21-.21-.12-.22-.54-.2-.21-.06-.91-.13-.46.07-.18-.1-.11v-.09a10.88,10.88,0,0,1,.07-1.27,1.33,1.33,0,0,0,.17-.83.85.85,0,0,1,.09-.35A3.31,3.31,0,0,0,116,15l.38-1a.34.34,0,0,0,0-.09.27.27,0,0,1,0-.08,1.35,1.35,0,0,1,.09-.52h0l0,0c.08,0,.12-.11.09-.31a2,2,0,0,0-.06-.4l.21-.28-.06-.14.33-.66.2-.56.08-.05.3-.74.26-.79a1,1,0,0,1,.29-.29.11.11,0,0,0,0-.07V9l.13-.74.15-.26V7.71l.39-.51.14-.75.13-.16.1-.07c.08,0,.16-.18.23-.44a3.15,3.15,0,0,1,.46-1l0,0,.21-.62-.06,0,0-.09-.31-.14-.19.09a.86.86,0,0,1-.46.24h-.24a2,2,0,0,1-.62.17l-.49,0,.36.22,0,.23a.91.91,0,0,1,.2.43.48.48,0,0,1,0,.17.91.91,0,0,1,.12.35,3.38,3.38,0,0,1-.14,1.11l-.42.39-.28.46-.18.08-.11.35-.7.27-.18.26-2,.38L113.83,9l-.75-.45-.23-.27-.44-.38,0-.37a1.79,1.79,0,0,1-.16-.54,3.23,3.23,0,0,1,.17-.57l0-.07,0-.32a.14.14,0,0,0,.09,0c.08,0,.12,0,.12-.08a.6.6,0,0,0-.15-.16,2.06,2.06,0,0,0,.08-.52c0-.16,0-.26,0-.32v0a2.4,2.4,0,0,0,0-.37h0l0,0,.07,0a.09.09,0,0,1,.06,0l0,0a1.79,1.79,0,0,0,.36-.4,1.94,1.94,0,0,0,.13-.23l.07-.16a.94.94,0,0,1,.23-.37l.06-.07a1.16,1.16,0,0,1,.46-.71,1.4,1.4,0,0,1,.55-.21,4,4,0,0,1,1.28.31l.24.08c.09.18.15.31.19.41v0l.26-.16.69,0,.74-.08.48.08.51-.17.48-.11a3,3,0,0,1,.89-.46l0,.06s.09-.11.14-.32l.45,0,.12-.06a.55.55,0,0,0,.14-.1,1.1,1.1,0,0,1,.19-.25l-.1-.1a2.32,2.32,0,0,1,.47-.43,3.55,3.55,0,0,0,.81-.76.8.8,0,0,1,.23-.27,1.1,1.1,0,0,1,.33-.09,1.2,1.2,0,0,1,.66.17l.5.58Zm-7.42,3.89-.13.19a1.1,1.1,0,0,0-.34-.35c-.08-.22-.17-.35-.27-.38a1.1,1.1,0,0,1-.56-.17,4.43,4.43,0,0,1-.56.12.77.77,0,0,1-.37,0,1.3,1.3,0,0,0,0,.27l-.24.14-.12.29v.36l-.22.37-.12.27.12.15-.2.45.06.21v.26a1.56,1.56,0,0,0,.26.43.31.31,0,0,0,.3.08h.07l.76-.11.32,0a.63.63,0,0,0,.18-.17,2.06,2.06,0,0,1,.36-.4l.36,0,.18-.32,0-.13a.69.69,0,0,0,.24-.54l0-.15V5.8l0-.3Zm8.64,6a.72.72,0,0,1,.08.27.88.88,0,0,1-.06.46,1,1,0,0,1,.1.35.79.79,0,0,1-.11.36v0a1.53,1.53,0,0,1-.39,1l-.13.34c-.14.05-.22.12-.24.19a.86.86,0,0,1-.47.55l-.14.16-.41.28-.41.37a1.17,1.17,0,0,1-.65.3l-.16,0-.41.15h-.83l-1-.47-.35-.88-.05-.47-.15-.37.07-.17-.07-.25c0-.18.08-.38.14-.6a6.73,6.73,0,0,0,.19-1l.23-.13v0a.59.59,0,0,1,0-.11.59.59,0,0,0,0-.11v0a3.26,3.26,0,0,1,.13-.53.36.36,0,0,1,0-.09A1.9,1.9,0,0,1,121,9.7l0-.47.58-.13.42-.3.65-.07.57.11.66,0,.19.34a.12.12,0,0,0,.08,0l.07,0a1.17,1.17,0,0,1,.61.49l.6.81Zm-1.51-.32-.22-.26-.26-.1a1.08,1.08,0,0,0-.15-.13l-.29.07-.26-.05-.05.34a.65.65,0,0,1-.55-.13l0,.5-.14.12v.26l-.42.49,0,.46-.16.14a2.94,2.94,0,0,1-.1.63v.11a.91.91,0,0,1,0,.32q.15,1,.57,1.05l.06,0a1.93,1.93,0,0,0,.31-.09,2,2,0,0,1,.44-.22h0l.17-.15.74-.65a.71.71,0,0,1,.24-.37c.12-.06.18-.1.18-.13v0l0,0a1,1,0,0,0,.12-.29l.07-.75,0-.17,0-.37Z"/><path class="cls-2" d="M40.29,28.29C37,30.7,13.84,26.2,10.12,24.13L3.7,20.56"/><polygon class="cls-1" points="13.77 20.7 13.53 22.18 3.83 20.63 10.26 28.06 9.13 29.04 0 18.5 13.77 20.7"/></g></g></svg>